<?xml version="1.0" encoding="UTF-8" standalone="no"?>
<!DOCTYPE svg PUBLIC "-//W3C//DTD SVG 1.1//EN"
 "http://www.w3.org/Graphics/SVG/1.1/DTD/svg11.dtd">
<!-- Generated by graphviz version 2.43.0 (0)
 -->
<!-- Title: prusa_connections Pages: 1 -->
<svg width="1261pt" height="222pt"
 viewBox="0.00 0.00 1261.00 222.00" xmlns="http://www.w3.org/2000/svg" xmlns:xlink="http://www.w3.org/1999/xlink">
<g id="graph0" class="graph" transform="scale(1 1) rotate(0) translate(18 204)">
<title>prusa_connections</title>
<!-- api -->
<g id="node1" class="node">
<title>api</title>
<path fill="#e8f1fb" stroke="#285f8f" d="M120,-159C120,-159 12,-159 12,-159 6,-159 0,-153 0,-147 0,-147 0,-131 0,-131 0,-125 6,-119 12,-119 12,-119 120,-119 120,-119 126,-119 132,-125 132,-131 132,-131 132,-147 132,-147 132,-153 126,-159 120,-159"/>
<text text-anchor="middle" x="66" y="-146.8" font-family="DejaVu Sans" font-size="9.00">/api/printer</text>
<text text-anchor="middle" x="66" y="-136.8" font-family="DejaVu Sans" font-size="9.00">fleet / connection / profile</text>
<text text-anchor="middle" x="66" y="-126.8" font-family="DejaVu Sans" font-size="9.00">status / autoejection</text>
</g>
<!-- workflow -->
<g id="node3" class="node">
<title>workflow</title>
<path fill="#e8f1fb" stroke="#285f8f" d="M285,-129C285,-129 189,-129 189,-129 183,-129 177,-123 177,-117 177,-117 177,-105 177,-105 177,-99 183,-93 189,-93 189,-93 285,-93 285,-93 291,-93 297,-99 297,-105 297,-105 297,-117 297,-117 297,-123 291,-129 285,-129"/>
<text text-anchor="middle" x="237" y="-108.8" font-family="DejaVu Sans" font-size="9.00">PrinterAgenticWorkflow</text>
</g>
<!-- api&#45;&gt;workflow -->
<g id="edge1" class="edge">
<title>api&#45;&gt;workflow</title>
<path fill="none" stroke="#334155" d="M132.34,-128.17C144.61,-126.14 157.44,-124.02 169.74,-121.98"/>
<polygon fill="#334155" stroke="#334155" points="170.4,-124.35 176.91,-120.79 169.6,-119.52 170.4,-124.35"/>
</g>
<!-- tool -->
<g id="node2" class="node">
<title>tool</title>
<path fill="#e8f1fb" stroke="#285f8f" d="M95.5,-101C95.5,-101 36.5,-101 36.5,-101 30.5,-101 24.5,-95 24.5,-89 24.5,-89 24.5,-77 24.5,-77 24.5,-71 30.5,-65 36.5,-65 36.5,-65 95.5,-65 95.5,-65 101.5,-65 107.5,-71 107.5,-77 107.5,-77 107.5,-89 107.5,-89 107.5,-95 101.5,-101 95.5,-101"/>
<text text-anchor="middle" x="66" y="-85.8" font-family="DejaVu Sans" font-size="9.00">printer.prepare</text>
<text text-anchor="middle" x="66" y="-75.8" font-family="DejaVu Sans" font-size="9.00">device.health</text>
</g>
<!-- tool&#45;&gt;workflow -->
<g id="edge2" class="edge">
<title>tool&#45;&gt;workflow</title>
<path fill="none" stroke="#334155" d="M107.91,-89.78C126.52,-92.86 149.01,-96.59 169.91,-100.05"/>
<polygon fill="#334155" stroke="#334155" points="169.63,-102.49 176.94,-101.21 170.43,-97.65 169.63,-102.49"/>
</g>
<!-- validator -->
<g id="node4" class="node">
<title>validator</title>
<path fill="#e8f1fb" stroke="#285f8f" d="M765,-106C765,-106 657,-106 657,-106 651,-106 645,-100 645,-94 645,-94 645,-82 645,-82 645,-76 651,-70 657,-70 657,-70 765,-70 765,-70 771,-70 777,-76 777,-82 777,-82 777,-94 777,-94 777,-100 771,-106 765,-106"/>
<text text-anchor="middle" x="711" y="-90.8" font-family="DejaVu Sans" font-size="9.00">GCodeSafetyValidator</text>
<text text-anchor="middle" x="711" y="-80.8" font-family="DejaVu Sans" font-size="9.00">Bounds + Ejection builder</text>
</g>
<!-- workflow&#45;&gt;validator -->
<g id="edge3" class="edge">
<title>workflow&#45;&gt;validator</title>
<path fill="none" stroke="#334155" d="M297.3,-108.11C383.81,-103.89 544.44,-96.07 637.74,-91.52"/>
<polygon fill="#334155" stroke="#334155" points="638.02,-93.96 644.89,-91.17 637.78,-89.07 638.02,-93.96"/>
</g>
<!-- slicer -->
<g id="node5" class="node">
<title>slicer</title>
<polygon fill="#eee8ff" stroke="#654ea3" points="558.5,-152 453.5,-152 453.5,-148 449.5,-148 449.5,-144 453.5,-144 453.5,-124 449.5,-124 449.5,-120 453.5,-120 453.5,-116 558.5,-116 558.5,-152"/>
<polyline fill="none" stroke="#654ea3" points="453.5,-148 457.5,-148 457.5,-144 453.5,-144 "/>
<polyline fill="none" stroke="#654ea3" points="453.5,-124 457.5,-124 457.5,-120 453.5,-120 "/>
<text text-anchor="middle" x="506" y="-131.8" font-family="DejaVu Sans" font-size="9.00">PrusaSlicer wrapper</text>
</g>
<!-- workflow&#45;&gt;slicer -->
<g id="edge4" class="edge">
<title>workflow&#45;&gt;slicer</title>
<path fill="none" stroke="#334155" d="M297.26,-116.1C341.5,-119.92 401.69,-125.1 445.9,-128.91"/>
<polygon fill="#334155" stroke="#334155" points="445.94,-131.37 453.12,-129.53 446.36,-126.49 445.94,-131.37"/>
</g>
<!-- auth -->
<g id="node6" class="node">
<title>auth</title>
<path fill="#fff3cd" stroke="#946200" d="M494.38,-57.02C494.38,-57.02 400.62,-32.98 400.62,-32.98 394.81,-31.49 394.81,-28.51 400.62,-27.02 400.62,-27.02 494.38,-2.98 494.38,-2.98 500.19,-1.49 511.81,-1.49 517.62,-2.98 517.62,-2.98 611.38,-27.02 611.38,-27.02 617.19,-28.51 617.19,-31.49 611.38,-32.98 611.38,-32.98 517.62,-57.02 517.62,-57.02 511.81,-58.51 500.19,-58.51 494.38,-57.02"/>
<text text-anchor="middle" x="506" y="-32.8" font-family="DejaVu Sans" font-size="9.00">Auth resolver</text>
<text text-anchor="middle" x="506" y="-22.8" font-family="DejaVu Sans" font-size="9.00">digest / API key / basic</text>
</g>
<!-- workflow&#45;&gt;auth -->
<g id="edge5" class="edge">
<title>workflow&#45;&gt;auth</title>
<path fill="none" stroke="#334155" stroke-dasharray="5,2" d="M264.65,-92.88C279.95,-83.26 299.87,-72.01 319,-65 350.26,-53.54 385.92,-45.67 417.6,-40.34"/>
<polygon fill="#334155" stroke="#334155" points="418.2,-42.73 424.71,-39.18 417.41,-37.89 418.2,-42.73"/>
<text text-anchor="middle" x="343" y="-67.6" font-family="DejaVu Sans" font-size="8.00">live</text>
</g>
<!-- virtual -->
<g id="node8" class="node">
<title>virtual</title>
<polygon fill="#f1f5f9" stroke="#64748b" points="756,-186 666,-186 666,-182 662,-182 662,-178 666,-178 666,-158 662,-158 662,-154 666,-154 666,-150 756,-150 756,-186"/>
<polyline fill="none" stroke="#64748b" points="666,-182 670,-182 670,-178 666,-178 "/>
<polyline fill="none" stroke="#64748b" points="666,-158 670,-158 670,-154 666,-154 "/>
<text text-anchor="middle" x="711" y="-170.8" font-family="DejaVu Sans" font-size="9.00">Virtual PrusaLink</text>
<text text-anchor="middle" x="711" y="-160.8" font-family="DejaVu Sans" font-size="9.00">test only</text>
</g>
<!-- workflow&#45;&gt;virtual -->
<g id="edge8" class="edge">
<title>workflow&#45;&gt;virtual</title>
<path fill="none" stroke="#334155" stroke-dasharray="5,2" d="M281.06,-129.07C310.8,-140.6 351.58,-154.55 389,-161 483.15,-177.24 595.12,-174.87 658.84,-171.53"/>
<polygon fill="#334155" stroke="#334155" points="659.13,-173.97 665.99,-171.14 658.87,-169.08 659.13,-173.97"/>
<text text-anchor="middle" x="343" y="-157.6" font-family="DejaVu Sans" font-size="8.00">test default</text>
</g>
<!-- evidence -->
<g id="node10" class="node">
<title>evidence</title>
<polygon fill="#e7f6ec" stroke="#29733b" points="1219,-106 1054,-106 1054,-70 1225,-70 1225,-100 1219,-106"/>
<polyline fill="none" stroke="#29733b" points="1219,-106 1219,-100 "/>
<polyline fill="none" stroke="#29733b" points="1225,-100 1219,-100 "/>
<text text-anchor="middle" x="1139.5" y="-85.8" font-family="DejaVu Sans" font-size="9.00">G&#45;code + response + job evidence</text>
</g>
<!-- validator&#45;&gt;evidence -->
<g id="edge9" class="edge">
<title>validator&#45;&gt;evidence</title>
<path fill="none" stroke="#29733b" d="M777.24,-88C849.16,-88 965.39,-88 1046.54,-88"/>
<polygon fill="#29733b" stroke="#29733b" points="1046.78,-90.45 1053.78,-88 1046.78,-85.55 1046.78,-90.45"/>
<text text-anchor="middle" x="866" y="-90.6" font-family="DejaVu Sans" font-size="8.00">evidence</text>
</g>
<!-- link -->
<g id="node7" class="node">
<title>link</title>
<polygon fill="#eee8ff" stroke="#654ea3" points="933,-50 799,-50 799,-46 795,-46 795,-42 799,-42 799,-22 795,-22 795,-18 799,-18 799,-14 933,-14 933,-50"/>
<polyline fill="none" stroke="#654ea3" points="799,-46 803,-46 803,-42 799,-42 "/>
<polyline fill="none" stroke="#654ea3" points="799,-22 803,-22 803,-18 799,-18 "/>
<text text-anchor="middle" x="866" y="-34.8" font-family="DejaVu Sans" font-size="9.00">PrusaLink HTTP</text>
<text text-anchor="middle" x="866" y="-24.8" font-family="DejaVu Sans" font-size="9.00">status/storage/job/transfer</text>
</g>
<!-- auth&#45;&gt;link -->
<g id="edge6" class="edge">
<title>auth&#45;&gt;link</title>
<path fill="none" stroke="#334155" d="M620.77,-30.64C676.77,-30.95 742.65,-31.32 791.86,-31.59"/>
<polygon fill="#334155" stroke="#334155" points="791.99,-34.04 799,-31.63 792.01,-29.14 791.99,-34.04"/>
</g>
<!-- printer -->
<g id="node9" class="node">
<title>printer</title>
<polygon fill="#fde8e8" stroke="#a32929" stroke-width="2" points="1183.52,-24.54 1183.52,-39.46 1157.73,-50 1121.27,-50 1095.48,-39.46 1095.48,-24.54 1121.27,-14 1157.73,-14 1183.52,-24.54"/>
<text text-anchor="middle" x="1139.5" y="-29.8" font-family="DejaVu Sans" font-size="9.00">Prusa MK4S</text>
</g>
<!-- link&#45;&gt;printer -->
<g id="edge7" class="edge">
<title>link&#45;&gt;printer</title>
<path fill="none" stroke="#334155" d="M933.07,-32C980.8,-32 1044.29,-32 1087.99,-32"/>
<polygon fill="#334155" stroke="#334155" points="1088.1,-34.45 1095.1,-32 1088.1,-29.55 1088.1,-34.45"/>
<text text-anchor="middle" x="993.5" y="-34.6" font-family="DejaVu Sans" font-size="8.00">gated upload/start</text>
</g>
<!-- link&#45;&gt;evidence -->
<g id="edge10" class="edge">
<title>link&#45;&gt;evidence</title>
<path fill="none" stroke="#29733b" d="M933.28,-45.02C963.43,-51 999.54,-58.25 1032,-65 1037.4,-66.12 1042.96,-67.29 1048.56,-68.48"/>
<polygon fill="#29733b" stroke="#29733b" points="1048.32,-70.93 1055.68,-69.98 1049.34,-66.13 1048.32,-70.93"/>
<text text-anchor="middle" x="993.5" y="-67.6" font-family="DejaVu Sans" font-size="8.00">evidence</text>
</g>
<!-- virtual&#45;&gt;evidence -->
<g id="edge11" class="edge">
<title>virtual&#45;&gt;evidence</title>
<path fill="none" stroke="#29733b" stroke-dasharray="5,2" d="M756.04,-159.74C824.28,-146.94 957.05,-122.03 1046.76,-105.21"/>
<polygon fill="#29733b" stroke="#29733b" points="1047.26,-107.61 1053.68,-103.91 1046.35,-102.79 1047.26,-107.61"/>
<text text-anchor="middle" x="866" y="-152.6" font-family="DejaVu Sans" font-size="8.00">synthetic</text>
</g>
</g>
</svg>
