<?xml version="1.0" encoding="UTF-8" standalone="no"?>
<!DOCTYPE svg PUBLIC "-//W3C//DTD SVG 1.1//EN"
 "http://www.w3.org/Graphics/SVG/1.1/DTD/svg11.dtd">
<!-- Generated by graphviz version 2.43.0 (0)
 -->
<!-- Title: utm_vision_handoffs Pages: 1 -->
<svg width="1143pt" height="281pt"
 viewBox="0.00 0.00 1143.16 280.98" xmlns="http://www.w3.org/2000/svg" xmlns:xlink="http://www.w3.org/1999/xlink">
<g id="graph0" class="graph" transform="scale(1 1) rotate(0) translate(18 262.98)">
<title>utm_vision_handoffs</title>
<!-- vision -->
<g id="node1" class="node">
<title>vision</title>
<path fill="#e8f1fb" stroke="#285f8f" d="M137.5,-58.35C137.5,-58.35 19.5,-58.35 19.5,-58.35 13.5,-58.35 7.5,-52.35 7.5,-46.35 7.5,-46.35 7.5,-34.35 7.5,-34.35 7.5,-28.35 13.5,-22.35 19.5,-22.35 19.5,-22.35 137.5,-22.35 137.5,-22.35 143.5,-22.35 149.5,-28.35 149.5,-34.35 149.5,-34.35 149.5,-46.35 149.5,-46.35 149.5,-52.35 143.5,-58.35 137.5,-58.35"/>
<text text-anchor="middle" x="78.5" y="-43.15" font-family="DejaVu Sans" font-size="9.00">Vision Agent</text>
<text text-anchor="middle" x="78.5" y="-33.15" font-family="DejaVu Sans" font-size="9.00">capture / pose / cross&#45;check</text>
</g>
<!-- boundary -->
<g id="node5" class="node">
<title>boundary</title>
<path fill="#e8f1fb" stroke="#285f8f" stroke-width="2" d="M365.58,-131.35C365.58,-131.35 279.58,-131.35 279.58,-131.35 273.58,-131.35 267.58,-125.35 267.58,-119.35 267.58,-119.35 267.58,-107.35 267.58,-107.35 267.58,-101.35 273.58,-95.35 279.58,-95.35 279.58,-95.35 365.58,-95.35 365.58,-95.35 371.58,-95.35 377.58,-101.35 377.58,-107.35 377.58,-107.35 377.58,-119.35 377.58,-119.35 377.58,-125.35 371.58,-131.35 365.58,-131.35"/>
<text text-anchor="middle" x="322.58" y="-111.15" font-family="DejaVu Sans" font-size="9.00">UTM Vision Boundary</text>
</g>
<!-- vision&#45;&gt;boundary -->
<g id="edge1" class="edge">
<title>vision&#45;&gt;boundary</title>
<path fill="none" stroke="#334155" d="M139.34,-58.39C176.25,-69.52 223.46,-83.76 260.58,-94.95"/>
<polygon fill="#334155" stroke="#334155" points="259.98,-97.33 267.39,-97.01 261.39,-92.64 259.98,-97.33"/>
</g>
<!-- equipment -->
<g id="node2" class="node">
<title>equipment</title>
<path fill="#e8f1fb" stroke="#285f8f" d="M1080.16,-203.35C1080.16,-203.35 999.16,-203.35 999.16,-203.35 993.16,-203.35 987.16,-197.35 987.16,-191.35 987.16,-191.35 987.16,-179.35 987.16,-179.35 987.16,-173.35 993.16,-167.35 999.16,-167.35 999.16,-167.35 1080.16,-167.35 1080.16,-167.35 1086.16,-167.35 1092.16,-173.35 1092.16,-179.35 1092.16,-179.35 1092.16,-191.35 1092.16,-191.35 1092.16,-197.35 1086.16,-203.35 1080.16,-203.35"/>
<text text-anchor="middle" x="1039.66" y="-188.15" font-family="DejaVu Sans" font-size="9.00">Equipment Agent</text>
<text text-anchor="middle" x="1039.66" y="-178.15" font-family="DejaVu Sans" font-size="9.00">UTM readiness/state</text>
</g>
<!-- equipment&#45;&gt;boundary -->
<g id="edge2" class="edge">
<title>equipment&#45;&gt;boundary</title>
<path fill="none" stroke="#334155" d="M986.9,-202.3C879.39,-234.04 628.67,-289.72 469.16,-178.35 453.84,-167.65 465.83,-151.93 451.16,-140.35 432.49,-125.6 407.63,-118.41 384.83,-115.06"/>
<polygon fill="#334155" stroke="#334155" points="385.08,-112.62 377.83,-114.14 384.45,-117.48 385.08,-112.62"/>
</g>
<!-- manipulation -->
<g id="node3" class="node">
<title>manipulation</title>
<path fill="#e8f1fb" stroke="#285f8f" d="M1095.16,-137.35C1095.16,-137.35 984.16,-137.35 984.16,-137.35 978.16,-137.35 972.16,-131.35 972.16,-125.35 972.16,-125.35 972.16,-113.35 972.16,-113.35 972.16,-107.35 978.16,-101.35 984.16,-101.35 984.16,-101.35 1095.16,-101.35 1095.16,-101.35 1101.16,-101.35 1107.16,-107.35 1107.16,-113.35 1107.16,-113.35 1107.16,-125.35 1107.16,-125.35 1107.16,-131.35 1101.16,-137.35 1095.16,-137.35"/>
<text text-anchor="middle" x="1039.66" y="-122.15" font-family="DejaVu Sans" font-size="9.00">Manipulation Agent</text>
<text text-anchor="middle" x="1039.66" y="-112.15" font-family="DejaVu Sans" font-size="9.00">fresh pose/camera context</text>
</g>
<!-- manipulation&#45;&gt;boundary -->
<g id="edge3" class="edge">
<title>manipulation&#45;&gt;boundary</title>
<path fill="none" stroke="#334155" d="M972.08,-118.79C834.05,-117.63 518.46,-114.98 384.99,-113.86"/>
<polygon fill="#334155" stroke="#334155" points="384.64,-111.41 377.62,-113.8 384.6,-116.31 384.64,-111.41"/>
</g>
<!-- operator -->
<g id="node4" class="node">
<title>operator</title>
<path fill="#e8f1fb" stroke="#285f8f" d="M145,-131.35C145,-131.35 12,-131.35 12,-131.35 6,-131.35 0,-125.35 0,-119.35 0,-119.35 0,-107.35 0,-107.35 0,-101.35 6,-95.35 12,-95.35 12,-95.35 145,-95.35 145,-95.35 151,-95.35 157,-101.35 157,-107.35 157,-107.35 157,-119.35 157,-119.35 157,-125.35 151,-131.35 145,-131.35"/>
<text text-anchor="middle" x="78.5" y="-116.15" font-family="DejaVu Sans" font-size="9.00">Operator Vision/UTM</text>
<text text-anchor="middle" x="78.5" y="-106.15" font-family="DejaVu Sans" font-size="9.00">process + camera + calibration</text>
</g>
<!-- operator&#45;&gt;boundary -->
<g id="edge4" class="edge">
<title>operator&#45;&gt;boundary</title>
<path fill="none" stroke="#334155" d="M157.1,-113.35C190.38,-113.35 228.73,-113.35 260.01,-113.35"/>
<polygon fill="#334155" stroke="#334155" points="260.4,-115.8 267.4,-113.35 260.4,-110.9 260.4,-115.8"/>
</g>
<!-- runtime -->
<g id="node6" class="node">
<title>runtime</title>
<polygon fill="#eee8ff" stroke="#654ea3" points="711.66,-177.35 557.66,-177.35 557.66,-173.35 553.66,-173.35 553.66,-169.35 557.66,-169.35 557.66,-149.35 553.66,-149.35 553.66,-145.35 557.66,-145.35 557.66,-141.35 711.66,-141.35 711.66,-177.35"/>
<polyline fill="none" stroke="#654ea3" points="557.66,-173.35 561.66,-173.35 561.66,-169.35 557.66,-169.35 "/>
<polyline fill="none" stroke="#654ea3" points="557.66,-149.35 561.66,-149.35 561.66,-145.35 557.66,-145.35 "/>
<text text-anchor="middle" x="634.66" y="-162.15" font-family="DejaVu Sans" font-size="9.00">ROS runtime + camera + pose</text>
<text text-anchor="middle" x="634.66" y="-152.15" font-family="DejaVu Sans" font-size="9.00">state observer</text>
</g>
<!-- boundary&#45;&gt;runtime -->
<g id="edge5" class="edge">
<title>boundary&#45;&gt;runtime</title>
<path fill="none" stroke="#334155" d="M377.59,-121.36C425.35,-128.45 495.76,-138.89 550.67,-147.04"/>
<polygon fill="#334155" stroke="#334155" points="550.34,-149.47 557.62,-148.07 551.06,-144.62 550.34,-149.47"/>
</g>
<!-- blocked -->
<g id="node9" class="node">
<title>blocked</title>
<polygon fill="#fde8e8" stroke="#a32929" stroke-width="2" points="712.16,-85.35 557.16,-85.35 557.16,-49.35 712.16,-49.35 712.16,-85.35"/>
<text text-anchor="middle" x="634.66" y="-70.15" font-family="DejaVu Sans" font-size="9.00">stale / unavailable / insufficient</text>
<text text-anchor="middle" x="634.66" y="-60.15" font-family="DejaVu Sans" font-size="9.00">block downstream effect</text>
</g>
<!-- boundary&#45;&gt;blocked -->
<g id="edge11" class="edge">
<title>boundary&#45;&gt;blocked</title>
<path fill="none" stroke="#a32929" d="M377.82,-104.55C405.19,-100.16 438.92,-94.85 469.16,-90.35 495.36,-86.45 523.94,-82.39 549.82,-78.78"/>
<polygon fill="#a32929" stroke="#a32929" points="550.45,-81.17 557.04,-77.77 549.77,-76.31 550.45,-81.17"/>
<text text-anchor="middle" x="504.16" y="-92.95" font-family="DejaVu Sans" font-size="8.00">validation failure</text>
</g>
<!-- evidence -->
<g id="node8" class="node">
<title>evidence</title>
<polygon fill="#e7f6ec" stroke="#29733b" points="929.16,-171.35 786.16,-171.35 786.16,-135.35 935.16,-135.35 935.16,-165.35 929.16,-171.35"/>
<polyline fill="none" stroke="#29733b" points="929.16,-171.35 929.16,-165.35 "/>
<polyline fill="none" stroke="#29733b" points="935.16,-165.35 929.16,-165.35 "/>
<text text-anchor="middle" x="860.66" y="-156.15" font-family="DejaVu Sans" font-size="9.00">graph + frame + timestamp</text>
<text text-anchor="middle" x="860.66" y="-146.15" font-family="DejaVu Sans" font-size="9.00">pose/expiry + state sequence</text>
</g>
<!-- runtime&#45;&gt;evidence -->
<g id="edge7" class="edge">
<title>runtime&#45;&gt;evidence</title>
<path fill="none" stroke="#29733b" d="M711.81,-157.31C733.44,-156.73 757.07,-156.1 778.96,-155.51"/>
<polygon fill="#29733b" stroke="#29733b" points="779.07,-157.96 786,-155.32 778.94,-153.06 779.07,-157.96"/>
<text text-anchor="middle" x="749.16" y="-158.95" font-family="DejaVu Sans" font-size="8.00">evidence</text>
</g>
<!-- physical -->
<g id="node7" class="node">
<title>physical</title>
<polygon fill="#fde8e8" stroke="#a32929" stroke-width="2" points="451.24,-162.86 451.24,-181.84 375.88,-195.27 269.29,-195.27 193.92,-181.84 193.92,-162.86 269.29,-149.43 375.88,-149.43 451.24,-162.86"/>
<text text-anchor="middle" x="322.58" y="-175.15" font-family="DejaVu Sans" font-size="9.00">Observed UTM / specimen / scene</text>
<text text-anchor="middle" x="322.58" y="-165.15" font-family="DejaVu Sans" font-size="9.00">(no control authority)</text>
</g>
<!-- physical&#45;&gt;runtime -->
<g id="edge6" class="edge">
<title>physical&#45;&gt;runtime</title>
<path fill="none" stroke="#334155" d="M458.7,-166.69C492.56,-165.27 527.7,-163.79 557.54,-162.54"/>
<polygon fill="#334155" stroke="#334155" points="458.39,-164.25 451.49,-166.99 458.59,-169.14 458.39,-164.25"/>
<text text-anchor="middle" x="504.16" y="-167.95" font-family="DejaVu Sans" font-size="8.00">observation</text>
</g>
<!-- evidence&#45;&gt;vision -->
<g id="edge8" class="edge">
<title>evidence&#45;&gt;vision</title>
<path fill="none" stroke="#29733b" d="M843.75,-135.21C818.86,-108.36 767.77,-59.2 712.16,-40.35 521.19,24.4 278.74,-3.72 156.87,-24.81"/>
<polygon fill="#29733b" stroke="#29733b" points="156.21,-22.44 149.73,-26.06 157.05,-27.27 156.21,-22.44"/>
</g>
<!-- evidence&#45;&gt;equipment -->
<g id="edge9" class="edge">
<title>evidence&#45;&gt;equipment</title>
<path fill="none" stroke="#29733b" d="M935.19,-166.64C950.13,-169.34 965.65,-172.15 979.99,-174.74"/>
<polygon fill="#29733b" stroke="#29733b" points="979.6,-177.16 986.93,-176 980.48,-172.34 979.6,-177.16"/>
</g>
<!-- evidence&#45;&gt;manipulation -->
<g id="edge10" class="edge">
<title>evidence&#45;&gt;manipulation</title>
<path fill="none" stroke="#29733b" d="M935.19,-139.23C945.05,-137.33 955.16,-135.39 965.03,-133.49"/>
<polygon fill="#29733b" stroke="#29733b" points="965.74,-135.85 972.15,-132.13 964.82,-131.04 965.74,-135.85"/>
</g>
</g>
</svg>
