<?xml version="1.0" encoding="UTF-8" standalone="no"?>
<!DOCTYPE svg PUBLIC "-//W3C//DTD SVG 1.1//EN"
 "http://www.w3.org/Graphics/SVG/1.1/DTD/svg11.dtd">
<!-- Generated by graphviz version 2.43.0 (0)
 -->
<!-- Title: modularity_contracts Pages: 1 -->
<svg width="690pt" height="680pt"
 viewBox="0.00 0.00 689.63 680.32" xmlns="http://www.w3.org/2000/svg" xmlns:xlink="http://www.w3.org/1999/xlink">
<g id="graph0" class="graph" transform="scale(1 1) rotate(0) translate(20.16 660.16)">
<title>modularity_contracts</title>
<polygon fill="white" stroke="transparent" points="-20.16,20.16 -20.16,-660.16 669.47,-660.16 669.47,20.16 -20.16,20.16"/>
<text text-anchor="middle" x="324.66" y="-623.2" font-family="DejaVu Sans" font-size="16.00">Packages describe composition; registered runtime owns execution</text>
<!-- experimental -->
<g id="node1" class="node">
<title>experimental</title>
<path fill="#f4f0ff" stroke="#6750a4" d="M338.81,-588.5C338.81,-588.5 175.81,-588.5 175.81,-588.5 169.81,-588.5 163.81,-582.5 163.81,-576.5 163.81,-576.5 163.81,-555.5 163.81,-555.5 163.81,-549.5 169.81,-543.5 175.81,-543.5 175.81,-543.5 338.81,-543.5 338.81,-543.5 344.81,-543.5 350.81,-549.5 350.81,-555.5 350.81,-555.5 350.81,-576.5 350.81,-576.5 350.81,-582.5 344.81,-588.5 338.81,-588.5"/>
<text text-anchor="middle" x="257.31" y="-574.5" font-family="DejaVu Sans" font-size="10.00">Experimental Package</text>
<text text-anchor="middle" x="257.31" y="-563.5" font-family="DejaVu Sans" font-size="10.00">graph + package references</text>
<text text-anchor="middle" x="257.31" y="-552.5" font-family="DejaVu Sans" font-size="10.00">+ detached module configurations</text>
</g>
<!-- agent_package -->
<g id="node2" class="node">
<title>agent_package</title>
<path fill="#f4f0ff" stroke="#6750a4" d="M237.81,-462C237.81,-462 80.81,-462 80.81,-462 74.81,-462 68.81,-456 68.81,-450 68.81,-450 68.81,-438 68.81,-438 68.81,-432 74.81,-426 80.81,-426 80.81,-426 237.81,-426 237.81,-426 243.81,-426 249.81,-432 249.81,-438 249.81,-438 249.81,-450 249.81,-450 249.81,-456 243.81,-462 237.81,-462"/>
<text text-anchor="middle" x="159.31" y="-447" font-family="DejaVu Sans" font-size="10.00">Agent Package</text>
<text text-anchor="middle" x="159.31" y="-436" font-family="DejaVu Sans" font-size="10.00">owner + version + dependencies</text>
</g>
<!-- experimental&#45;&gt;agent_package -->
<g id="edge2" class="edge">
<title>experimental&#45;&gt;agent_package</title>
<path fill="none" stroke="#6750a4" stroke-dasharray="5,2" d="M239.57,-543.27C222.22,-522.03 195.91,-489.82 178.19,-468.12"/>
<polygon fill="#6750a4" stroke="#6750a4" points="179.94,-466.28 173.43,-462.29 176.04,-469.46 179.94,-466.28"/>
<text text-anchor="middle" x="224.31" y="-487.8" font-family="DejaVu Sans" font-size="9.00">references</text>
</g>
<!-- orchestration -->
<g id="node3" class="node">
<title>orchestration</title>
<path fill="#eef4ff" stroke="#315c9b" stroke-width="2" d="M422.31,-462C422.31,-462 292.31,-462 292.31,-462 286.31,-462 280.31,-456 280.31,-450 280.31,-450 280.31,-438 280.31,-438 280.31,-432 286.31,-426 292.31,-426 292.31,-426 422.31,-426 422.31,-426 428.31,-426 434.31,-432 434.31,-438 434.31,-438 434.31,-450 434.31,-450 434.31,-456 428.31,-462 422.31,-462"/>
<text text-anchor="middle" x="357.31" y="-447" font-family="DejaVu Sans" font-size="10.00">Existing Orchestration Plan</text>
<text text-anchor="middle" x="357.31" y="-436" font-family="DejaVu Sans" font-size="10.00">graph + LangGraph runtime</text>
</g>
<!-- experimental&#45;&gt;orchestration -->
<g id="edge1" class="edge">
<title>experimental&#45;&gt;orchestration</title>
<path fill="none" stroke="#6750a4" stroke-dasharray="5,2" d="M275.42,-543.27C293.19,-521.94 320.19,-489.54 338.28,-467.84"/>
<polygon fill="#6750a4" stroke="#6750a4" points="340.23,-469.44 342.9,-462.29 336.36,-466.21 340.23,-469.44"/>
<text text-anchor="middle" x="345.31" y="-487.8" font-family="DejaVu Sans" font-size="9.00">references</text>
</g>
<!-- specialist -->
<g id="node5" class="node">
<title>specialist</title>
<path fill="#e8f6ec" stroke="#2e7d59" d="M301.31,-370C301.31,-370 179.31,-370 179.31,-370 173.31,-370 167.31,-364 167.31,-358 167.31,-358 167.31,-346 167.31,-346 167.31,-340 173.31,-334 179.31,-334 179.31,-334 301.31,-334 301.31,-334 307.31,-334 313.31,-340 313.31,-346 313.31,-346 313.31,-358 313.31,-358 313.31,-364 307.31,-370 301.31,-370"/>
<text text-anchor="middle" x="240.31" y="-355" font-family="DejaVu Sans" font-size="10.00">Specialist agent modules</text>
<text text-anchor="middle" x="240.31" y="-344" font-family="DejaVu Sans" font-size="10.00">registered owner handlers</text>
</g>
<!-- agent_package&#45;&gt;specialist -->
<g id="edge3" class="edge">
<title>agent_package&#45;&gt;specialist</title>
<path fill="none" stroke="#6750a4" stroke-dasharray="5,2" d="M174.93,-425.65C187.7,-411.45 205.87,-391.27 219.81,-375.78"/>
<polygon fill="#6750a4" stroke="#6750a4" points="221.8,-377.34 224.74,-370.3 218.05,-373.97 221.8,-377.34"/>
<text text-anchor="middle" x="239.31" y="-395.8" font-family="DejaVu Sans" font-size="9.00">describes owner</text>
</g>
<!-- bridge -->
<g id="node7" class="node">
<title>bridge</title>
<path fill="#fdecec" stroke="#a33a3a" d="M234.31,-128C234.31,-128 102.31,-128 102.31,-128 96.31,-128 90.31,-122 90.31,-116 90.31,-116 90.31,-104 90.31,-104 90.31,-98 96.31,-92 102.31,-92 102.31,-92 234.31,-92 234.31,-92 240.31,-92 246.31,-98 246.31,-104 246.31,-104 246.31,-116 246.31,-116 246.31,-122 240.31,-128 234.31,-128"/>
<text text-anchor="middle" x="168.31" y="-113" font-family="DejaVu Sans" font-size="10.00">Device Bridge module</text>
<text text-anchor="middle" x="168.31" y="-102" font-family="DejaVu Sans" font-size="10.00">provider / command / status</text>
</g>
<!-- agent_package&#45;&gt;bridge -->
<g id="edge4" class="edge">
<title>agent_package&#45;&gt;bridge</title>
<path fill="none" stroke="#6750a4" stroke-dasharray="5,2" d="M136.44,-425.97C82.94,-384.01 -41.75,-272.62 14.31,-184 30.5,-158.41 58.35,-141.62 85.96,-130.67"/>
<polygon fill="#6750a4" stroke="#6750a4" points="87.12,-132.93 92.96,-128.02 85.34,-128.21 87.12,-132.93"/>
<text text-anchor="middle" x="74.81" y="-290.8" font-family="DejaVu Sans" font-size="9.00">declares dependency</text>
</g>
<!-- core -->
<g id="node4" class="node">
<title>core</title>
<path fill="#e8f6ec" stroke="#2e7d59" d="M480.81,-311C480.81,-311 401.81,-311 401.81,-311 395.81,-311 389.81,-305 389.81,-299 389.81,-299 389.81,-287 389.81,-287 389.81,-281 395.81,-275 401.81,-275 401.81,-275 480.81,-275 480.81,-275 486.81,-275 492.81,-281 492.81,-287 492.81,-287 492.81,-299 492.81,-299 492.81,-305 486.81,-311 480.81,-311"/>
<text text-anchor="middle" x="441.31" y="-296" font-family="DejaVu Sans" font-size="10.00">Core owners</text>
<text text-anchor="middle" x="441.31" y="-285" font-family="DejaVu Sans" font-size="10.00">ORC · KNW · GRD</text>
</g>
<!-- orchestration&#45;&gt;core -->
<g id="edge5" class="edge">
<title>orchestration&#45;&gt;core</title>
<path fill="none" stroke="#334155" stroke-width="1.6" d="M366.95,-425.91C381.93,-399.33 410.86,-348.02 427.88,-317.82"/>
<polygon fill="#334155" stroke="#334155" stroke-width="1.6" points="430.19,-318.86 431.53,-311.35 425.8,-316.39 430.19,-318.86"/>
<text text-anchor="middle" x="408.81" y="-395.8" font-family="DejaVu Sans" font-size="9.00">dispatches</text>
</g>
<!-- orchestration&#45;&gt;specialist -->
<g id="edge6" class="edge">
<title>orchestration&#45;&gt;specialist</title>
<path fill="none" stroke="#334155" stroke-width="1.6" d="M335.03,-425.86C316.08,-411.28 288.78,-390.28 268.35,-374.56"/>
<polygon fill="#334155" stroke="#334155" stroke-width="1.6" points="269.75,-372.47 262.51,-370.08 266.68,-376.46 269.75,-372.47"/>
<text text-anchor="middle" x="326.81" y="-395.8" font-family="DejaVu Sans" font-size="9.00">dispatches</text>
</g>
<!-- evidence -->
<g id="node8" class="node">
<title>evidence</title>
<polygon fill="#f7f8fa" stroke="#64748b" points="422.81,-36 419.81,-40 398.81,-40 395.81,-36 283.81,-36 283.81,0 422.81,0 422.81,-36"/>
<text text-anchor="middle" x="353.31" y="-15.5" font-family="DejaVu Sans" font-size="10.00">Run evidence + artifacts</text>
</g>
<!-- core&#45;&gt;evidence -->
<g id="edge7" class="edge">
<title>core&#45;&gt;evidence</title>
<path fill="none" stroke="#334155" d="M440.8,-274.68C439.61,-247.69 435.62,-194.2 422.31,-151 408.85,-107.31 397.94,-99.28 376.31,-59 373.43,-53.64 370.24,-47.94 367.17,-42.57"/>
<polygon fill="#334155" stroke="#334155" points="369.16,-40.98 363.38,-36.01 364.8,-43.5 369.16,-40.98"/>
<text text-anchor="middle" x="459.31" y="-153.8" font-family="DejaVu Sans" font-size="9.00">returns records</text>
</g>
<!-- tools -->
<g id="node6" class="node">
<title>tools</title>
<path fill="#fff3cd" stroke="#946200" d="M156.66,-249.15C156.66,-249.15 40.97,-220.85 40.97,-220.85 35.14,-219.43 35.14,-216.57 40.97,-215.15 40.97,-215.15 156.66,-186.85 156.66,-186.85 162.48,-185.43 174.14,-185.43 179.97,-186.85 179.97,-186.85 295.66,-215.15 295.66,-215.15 301.48,-216.57 301.48,-219.43 295.66,-220.85 295.66,-220.85 179.97,-249.15 179.97,-249.15 174.14,-250.57 162.48,-250.57 156.66,-249.15"/>
<text text-anchor="middle" x="168.31" y="-221" font-family="DejaVu Sans" font-size="10.00">Registered tools + gates</text>
<text text-anchor="middle" x="168.31" y="-210" font-family="DejaVu Sans" font-size="10.00">authority and validation</text>
</g>
<!-- specialist&#45;&gt;tools -->
<g id="edge8" class="edge">
<title>specialist&#45;&gt;tools</title>
<path fill="none" stroke="#334155" d="M230.9,-333.74C219.97,-313.71 201.66,-280.13 187.65,-254.46"/>
<polygon fill="#334155" stroke="#334155" points="189.86,-253.23 184.19,-248.12 185.43,-255.65 189.86,-253.23"/>
<text text-anchor="middle" x="270.81" y="-290.8" font-family="DejaVu Sans" font-size="9.00">requests allowed action</text>
</g>
<!-- specialist&#45;&gt;evidence -->
<g id="edge11" class="edge">
<title>specialist&#45;&gt;evidence</title>
<path fill="none" stroke="#334155" d="M303.57,-333.95C314.37,-328.32 324.33,-320.86 331.31,-311 339,-300.14 348.83,-111.62 352.16,-43.4"/>
<polygon fill="#334155" stroke="#334155" points="354.68,-43.37 352.51,-36.06 349.65,-43.13 354.68,-43.37"/>
<text text-anchor="middle" x="379.31" y="-153.8" font-family="DejaVu Sans" font-size="9.00">result / archive</text>
</g>
<!-- tools&#45;&gt;bridge -->
<g id="edge9" class="edge">
<title>tools&#45;&gt;bridge</title>
<path fill="none" stroke="#334155" stroke-width="1.6" d="M168.31,-183.75C168.31,-168.18 168.31,-149.95 168.31,-135.63"/>
<polygon fill="#334155" stroke="#334155" stroke-width="1.6" points="170.83,-135.33 168.31,-128.13 165.79,-135.33 170.83,-135.33"/>
<text text-anchor="middle" x="205.31" y="-153.8" font-family="DejaVu Sans" font-size="9.00">gated execution</text>
</g>
<!-- bridge&#45;&gt;evidence -->
<g id="edge10" class="edge">
<title>bridge&#45;&gt;evidence</title>
<path fill="none" stroke="#334155" d="M183.99,-91.62C194.48,-80.89 209.11,-67.6 224.31,-59 240.44,-49.88 258.9,-42.58 276.71,-36.84"/>
<polygon fill="#334155" stroke="#334155" points="277.65,-39.19 283.77,-34.64 276.15,-34.38 277.65,-39.19"/>
<text text-anchor="middle" x="277.31" y="-61.8" font-family="DejaVu Sans" font-size="9.00">status / effect evidence</text>
</g>
<!-- legend -->
<g id="node9" class="node">
<title>legend</title>
<path fill="#eef4ff" stroke="transparent" d="M637.31,-614C637.31,-614 393.31,-614 393.31,-614 387.31,-614 381.31,-608 381.31,-602 381.31,-602 381.31,-530 381.31,-530 381.31,-524 387.31,-518 393.31,-518 393.31,-518 637.31,-518 637.31,-518 643.31,-518 649.31,-524 649.31,-530 649.31,-530 649.31,-602 649.31,-602 649.31,-608 643.31,-614 637.31,-614"/>
<polygon fill="none" stroke="#315c9b" points="390.31,-587 390.31,-608 443.31,-608 443.31,-587 390.31,-587"/>
<text text-anchor="start" x="404.81" y="-596" font-family="DejaVu Sans" font-weight="bold" font-size="10.00">Line</text>
<polygon fill="none" stroke="#315c9b" points="443.31,-587 443.31,-608 640.31,-608 640.31,-587 443.31,-587"/>
<text text-anchor="start" x="517.31" y="-596" font-family="DejaVu Sans" font-weight="bold" font-size="10.00">Meaning</text>
<polygon fill="none" stroke="#315c9b" points="390.31,-566 390.31,-587 443.31,-587 443.31,-566 390.31,-566"/>
<text text-anchor="start" x="404.81" y="-574" font-family="DejaVu Sans" font-size="10.00">solid</text>
<polygon fill="none" stroke="#315c9b" points="443.31,-566 443.31,-587 640.31,-587 640.31,-566 443.31,-566"/>
<text text-anchor="start" x="470.81" y="-574" font-family="DejaVu Sans" font-size="10.00">runtime call or evidence flow</text>
<polygon fill="none" stroke="#315c9b" points="390.31,-545 390.31,-566 443.31,-566 443.31,-545 390.31,-545"/>
<text text-anchor="start" x="398.81" y="-553" font-family="DejaVu Sans" font-size="10.00" fill="#6750a4">dashed</text>
<polygon fill="none" stroke="#315c9b" points="443.31,-545 443.31,-566 640.31,-566 640.31,-545 443.31,-545"/>
<text text-anchor="start" x="449.81" y="-553" font-family="DejaVu Sans" font-size="10.00">package reference / composition only</text>
<polygon fill="none" stroke="#315c9b" points="390.31,-524 390.31,-545 443.31,-545 443.31,-524 390.31,-524"/>
<text text-anchor="start" x="395.31" y="-532" font-family="DejaVu Sans" font-size="10.00">diamond</text>
<polygon fill="none" stroke="#315c9b" points="443.31,-524 443.31,-545 640.31,-545 640.31,-524 443.31,-524"/>
<text text-anchor="start" x="448.31" y="-532" font-family="DejaVu Sans" font-size="10.00">registered validation or authority gate</text>
</g>
</g>
</svg>
