#usda 1.0
(
    defaultPrim = "World"
    metersPerUnit = 1
    upAxis = "Z"
)

def Xform "World"
{
    def PhysicsScene "PhysicsScene" (
        prepend apiSchemas = ["NewtonSceneAPI", "PhysxSceneAPI"]
    )
    {
        vector3f physics:gravityDirection = (0, 0, -1)
        float physics:gravityMagnitude = 9.81
        custom float physxScene:bounceThresholdVelocity = 0.01
        uniform token physxScene:broadphaseType = "GPU"
        custom bool physxScene:enableCCD = 1
        custom bool physxScene:enableStabilization = 1
        custom float physxScene:frictionCorrelationDistance = 0.00625
        custom float physxScene:frictionOffsetThreshold = 0.002
        custom uint physxScene:gpuFoundLostAggregatePairsCapacity = 8192
        custom uint physxScene:gpuTotalAggregatePairsCapacity = 8192
        uniform token physxScene:solverType = "TGS"
        custom int physxScene:timeStepsPerSecond = 240
    }

    def "Materials"
    {
        def Material "desk_redwood_laminate"
        {
            token outputs:surface.connect = </World/Materials/desk_redwood_laminate/PreviewSurface.outputs:surface>

            def Shader "PreviewSurface"
            {
                uniform token info:id = "UsdPreviewSurface"
                color3f inputs:diffuseColor = (0.42, 0.095, 0.04)
                float inputs:metallic = 0
                float inputs:roughness = 0.6
                token outputs:surface
            }
        }

        def Material "desk_redwood_textured"
        {
            token outputs:surface.connect = </World/Materials/desk_redwood_textured/PreviewSurface.outputs:surface>

            def Shader "PreviewSurface"
            {
                uniform token info:id = "UsdPreviewSurface"
                color3f inputs:diffuseColor = (0.5, 0.1, 0.045)
                color3f inputs:diffuseColor.connect = </World/Materials/desk_redwood_textured/WoodTexture.outputs:rgb>
                float inputs:metallic = 0
                float inputs:roughness = 0.58
                token outputs:surface
            }

            def Shader "PrimvarReader_st"
            {
                uniform token info:id = "UsdPrimvarReader_float2"
                token inputs:varname = "st"
                float2 outputs:result
            }

            def Shader "WoodTexture"
            {
                uniform token info:id = "UsdUVTexture"
                asset inputs:file = @/home/jin/autonomous_researcher/sim/robotis_omx/scene/Textures/redwood_table_grain.png@
                token inputs:sourceColorSpace = "sRGB"
                float2 inputs:st.connect = </World/Materials/desk_redwood_textured/PrimvarReader_st.outputs:result>
                color3f outputs:rgb
            }
        }

        def Material "desk_dark_redwood_edge"
        {
            token outputs:surface.connect = </World/Materials/desk_dark_redwood_edge/PreviewSurface.outputs:surface>

            def Shader "PreviewSurface"
            {
                uniform token info:id = "UsdPreviewSurface"
                color3f inputs:diffuseColor = (0.2, 0.045, 0.022)
                float inputs:metallic = 0
                float inputs:roughness = 0.7
                token outputs:surface
            }
        }

        def Material "a4_matte_white"
        {
            token outputs:surface.connect = </World/Materials/a4_matte_white/PreviewSurface.outputs:surface>

            def Shader "PreviewSurface"
            {
                uniform token info:id = "UsdPreviewSurface"
                color3f inputs:diffuseColor = (0.93, 0.93, 0.9)
                float inputs:metallic = 0
                float inputs:roughness = 0.78
                token outputs:surface
            }
        }

        def Material "aluminum_disk"
        {
            token outputs:surface.connect = </World/Materials/aluminum_disk/PreviewSurface.outputs:surface>

            def Shader "PreviewSurface"
            {
                uniform token info:id = "UsdPreviewSurface"
                color3f inputs:diffuseColor = (0.72, 0.69, 0.62)
                float inputs:metallic = 0.15
                float inputs:roughness = 0.35
                token outputs:surface
            }
        }

        def Material "dark_base"
        {
            token outputs:surface.connect = </World/Materials/dark_base/PreviewSurface.outputs:surface>

            def Shader "PreviewSurface"
            {
                uniform token info:id = "UsdPreviewSurface"
                color3f inputs:diffuseColor = (0.02, 0.02, 0.018)
                float inputs:metallic = 0
                float inputs:roughness = 0.65
                token outputs:surface
            }
        }

        def Material "red_test_cube"
        {
            token outputs:surface.connect = </World/Materials/red_test_cube/PreviewSurface.outputs:surface>

            def Shader "PreviewSurface"
            {
                uniform token info:id = "UsdPreviewSurface"
                color3f inputs:diffuseColor = (0.86, 0.05, 0.04)
                float inputs:metallic = 0
                float inputs:roughness = 0.55
                token outputs:surface
            }
        }

        def Material "wood_laminate_contact_physics" (
            prepend apiSchemas = ["PhysicsMaterialAPI"]
        )
        {
            float physics:dynamicFriction = 0.35
            float physics:restitution = 0
            float physics:staticFriction = 0.45
        }

        def Material "paper_contact_physics" (
            prepend apiSchemas = ["PhysicsMaterialAPI"]
        )
        {
            float physics:dynamicFriction = 0.9
            float physics:restitution = 0
            float physics:staticFriction = 1.1
        }

        def Material "pla_specimen_contact_physics" (
            prepend apiSchemas = ["PhysicsMaterialAPI", "PhysxMaterialAPI"]
        )
        {
            float physics:dynamicFriction = 0.8
            float physics:restitution = 0
            float physics:staticFriction = 1
            custom float physxMaterial:compliantContactDamping = 1000
            custom float physxMaterial:compliantContactStiffness = 100000
            uniform token physxMaterial:frictionCombineMode = "max"
        }

        def Material "blue_corner_marker"
        {
            token outputs:surface.connect = </World/Materials/blue_corner_marker/PreviewSurface.outputs:surface>

            def Shader "PreviewSurface"
            {
                uniform token info:id = "UsdPreviewSurface"
                color3f inputs:diffuseColor = (0.02, 0.42, 0.9)
                float inputs:metallic = 0
                float inputs:roughness = 0.45
                token outputs:surface
            }
        }

        def Material "yellow_center_marker"
        {
            token outputs:surface.connect = </World/Materials/yellow_center_marker/PreviewSurface.outputs:surface>

            def Shader "PreviewSurface"
            {
                uniform token info:id = "UsdPreviewSurface"
                color3f inputs:diffuseColor = (1, 0.88, 0.02)
                float inputs:metallic = 0
                float inputs:roughness = 0.38
                token outputs:surface
            }
        }
    }

    def "Table"
    {
        def Cube "TableTop" (
            prepend apiSchemas = ["PhysicsCollisionAPI"]
        )
        {
            rel material:binding = </World/Materials/desk_redwood_laminate>
            custom rel material:binding:physics = </World/Materials/wood_laminate_contact_physics>
            custom token physics:approximation = "box"
            bool physics:collisionEnabled = 1
            double size = 1
            float3 xformOp:scale = (0.7, 0.33, 0.03)
            double3 xformOp:translate = (0.35, 0.285, -0.015)
            uniform token[] xformOpOrder = ["xformOp:translate", "xformOp:scale"]
        }

        def Cube "TableTopFrontLeft" (
            prepend apiSchemas = ["PhysicsCollisionAPI"]
        )
        {
            rel material:binding = </World/Materials/desk_redwood_laminate>
            custom rel material:binding:physics = </World/Materials/wood_laminate_contact_physics>
            custom token physics:approximation = "box"
            bool physics:collisionEnabled = 1
            double size = 1
            float3 xformOp:scale = (0.24, 0.12, 0.03)
            double3 xformOp:translate = (0.12, 0.06, -0.015)
            uniform token[] xformOpOrder = ["xformOp:translate", "xformOp:scale"]
        }

        def Cube "TableTopFrontRight" (
            prepend apiSchemas = ["PhysicsCollisionAPI"]
        )
        {
            rel material:binding = </World/Materials/desk_redwood_laminate>
            custom rel material:binding:physics = </World/Materials/wood_laminate_contact_physics>
            custom token physics:approximation = "box"
            bool physics:collisionEnabled = 1
            double size = 1
            float3 xformOp:scale = (0.31, 0.12, 0.03)
            double3 xformOp:translate = (0.545, 0.06, -0.015)
            uniform token[] xformOpOrder = ["xformOp:translate", "xformOp:scale"]
        }

        def Cube "RobotBasePocketFloor" (
            prepend apiSchemas = ["PhysicsCollisionAPI"]
        )
        {
            rel material:binding = </World/Materials/desk_dark_redwood_edge>
            custom rel material:binding:physics = </World/Materials/wood_laminate_contact_physics>
            custom token physics:approximation = "box"
            bool physics:collisionEnabled = 1
            double size = 1
            float3 xformOp:scale = (0.15, 0.12, 0.004)
            double3 xformOp:translate = (0.315, 0.06, -0.022)
            uniform token[] xformOpOrder = ["xformOp:translate", "xformOp:scale"]
        }

        def Mesh "TableTopRedwoodGrainSurface_Back"
        {
            int[] faceVertexCounts = [4]
            int[] faceVertexIndices = [0, 1, 2, 3]
            rel material:binding = </World/Materials/desk_redwood_textured>
            normal3f[] normals = [(0, 0, 1)] (
                interpolation = "uniform"
            )
            point3f[] points = [(0, 0.12, 0.00003), (0.7, 0.12, 0.00003), (0.7, 0.45, 0.00003), (0, 0.45, 0.00003)]
            texCoord2f[] primvars:st = [(0, 0), (1, 0), (1, 1), (0, 1)] (
                interpolation = "vertex"
            )
        }

        def Mesh "TableTopRedwoodGrainSurface_FrontLeft"
        {
            int[] faceVertexCounts = [4]
            int[] faceVertexIndices = [0, 1, 2, 3]
            rel material:binding = </World/Materials/desk_redwood_textured>
            normal3f[] normals = [(0, 0, 1)] (
                interpolation = "uniform"
            )
            point3f[] points = [(0, 0, 0.00003), (0.24, 0, 0.00003), (0.24, 0.12, 0.00003), (0, 0.12, 0.00003)]
            texCoord2f[] primvars:st = [(0, 0), (1, 0), (1, 1), (0, 1)] (
                interpolation = "vertex"
            )
        }

        def Mesh "TableTopRedwoodGrainSurface_FrontRight"
        {
            int[] faceVertexCounts = [4]
            int[] faceVertexIndices = [0, 1, 2, 3]
            rel material:binding = </World/Materials/desk_redwood_textured>
            normal3f[] normals = [(0, 0, 1)] (
                interpolation = "uniform"
            )
            point3f[] points = [(0.39, 0, 0.00003), (0.7, 0, 0.00003), (0.7, 0.12, 0.00003), (0.39, 0.12, 0.00003)]
            texCoord2f[] primvars:st = [(0, 0), (1, 0), (1, 1), (0, 1)] (
                interpolation = "vertex"
            )
        }

        def Mesh "RobotBasePocketFloorRedwoodGrainSurface"
        {
            int[] faceVertexCounts = [4]
            int[] faceVertexIndices = [0, 1, 2, 3]
            rel material:binding = </World/Materials/desk_dark_redwood_edge>
            normal3f[] normals = [(0, 0, 1)] (
                interpolation = "uniform"
            )
            point3f[] points = [(0.24, 0, -0.01997), (0.39, 0, -0.01997), (0.39, 0.12, -0.01997), (0.24, 0.12, -0.01997)]
            texCoord2f[] primvars:st = [(0, 0), (1, 0), (1, 1), (0, 1)] (
                interpolation = "vertex"
            )
        }
    }

    def "Workspace"
    {
        def Cube "A4Sheet" (
            prepend apiSchemas = ["PhysicsCollisionAPI", "PhysxCollisionAPI"]
        )
        {
            rel material:binding = </World/Materials/a4_matte_white>
            custom rel material:binding:physics = </World/Materials/paper_contact_physics>
            custom token physics:approximation = "box"
            bool physics:collisionEnabled = 1
            custom float physxCollision:contactOffset = 0.001
            custom float physxCollision:restOffset = 0
            double size = 1
            float3 xformOp:scale = (0.17, 0.25, 0.00012)
            double3 xformOp:translate = (0.315, 0.245, 0.00006)
            uniform token[] xformOpOrder = ["xformOp:translate", "xformOp:scale"]
        }

        def Mesh "A4CornerMarker_1"
        {
            int[] faceVertexCounts = [3, 3, 3, 3, 3, 3, 3, 3, 3, 3, 3, 3, 3, 3, 3, 3, 3, 3, 3, 3, 3, 3, 3, 3, 3, 3, 3, 3, 3, 3, 3, 3, 3, 3, 3, 3, 3, 3, 3, 3, 3, 3, 3, 3, 3, 3, 3, 3]
            int[] faceVertexIndices = [0, 1, 2, 0, 2, 3, 0, 3, 4, 0, 4, 5, 0, 5, 6, 0, 6, 7, 0, 7, 8, 0, 8, 9, 0, 9, 10, 0, 10, 11, 0, 11, 12, 0, 12, 13, 0, 13, 14, 0, 14, 15, 0, 15, 16, 0, 16, 17, 0, 17, 18, 0, 18, 19, 0, 19, 20, 0, 20, 21, 0, 21, 22, 0, 22, 23, 0, 23, 24, 0, 24, 25, 0, 25, 26, 0, 26, 27, 0, 27, 28, 0, 28, 29, 0, 29, 30, 0, 30, 31, 0, 31, 32, 0, 32, 33, 0, 33, 34, 0, 34, 35, 0, 35, 36, 0, 36, 37, 0, 37, 38, 0, 38, 39, 0, 39, 40, 0, 40, 41, 0, 41, 42, 0, 42, 43, 0, 43, 44, 0, 44, 45, 0, 45, 46, 0, 46, 47, 0, 47, 48, 0, 48, 1]
            rel material:binding = </World/Materials/blue_corner_marker>
            normal3f[] normals = [(0, 0, 1), (0, 0, 1), (0, 0, 1), (0, 0, 1), (0, 0, 1), (0, 0, 1), (0, 0, 1), (0, 0, 1), (0, 0, 1), (0, 0, 1), (0, 0, 1), (0, 0, 1), (0, 0, 1), (0, 0, 1), (0, 0, 1), (0, 0, 1), (0, 0, 1), (0, 0, 1), (0, 0, 1), (0, 0, 1), (0, 0, 1), (0, 0, 1), (0, 0, 1), (0, 0, 1), (0, 0, 1), (0, 0, 1), (0, 0, 1), (0, 0, 1), (0, 0, 1), (0, 0, 1), (0, 0, 1), (0, 0, 1), (0, 0, 1), (0, 0, 1), (0, 0, 1), (0, 0, 1), (0, 0, 1), (0, 0, 1), (0, 0, 1), (0, 0, 1), (0, 0, 1), (0, 0, 1), (0, 0, 1), (0, 0, 1), (0, 0, 1), (0, 0, 1), (0, 0, 1), (0, 0, 1)] (
                interpolation = "uniform"
            )
            point3f[] points = [(0.23, 0.12, 0.00014), (0.234, 0.12, 0.00014), (0.23396578, 0.120522104, 0.00014), (0.2338637, 0.12103528, 0.00014), (0.23369552, 0.121530734, 0.00014), (0.2334641, 0.122, 0.00014), (0.23317342, 0.12243505, 0.00014), (0.23282842, 0.122828424, 0.00014), (0.23243505, 0.123173416, 0.00014), (0.232, 0.1234641, 0.00014), (0.23153074, 0.123695515, 0.00014), (0.23103528, 0.123863705, 0.00014), (0.23052211, 0.12396578, 0.00014), (0.23, 0.124, 0.00014), (0.2294779, 0.12396578, 0.00014), (0.22896473, 0.123863705, 0.00014), (0.22846927, 0.123695515, 0.00014), (0.228, 0.1234641, 0.00014), (0.22756496, 0.123173416, 0.00014), (0.22717157, 0.122828424, 0.00014), (0.2268266, 0.12243505, 0.00014), (0.2265359, 0.122, 0.00014), (0.22630449, 0.121530734, 0.00014), (0.2261363, 0.12103528, 0.00014), (0.22603422, 0.120522104, 0.00014), (0.226, 0.12, 0.00014), (0.22603422, 0.1194779, 0.00014), (0.2261363, 0.118964724, 0.00014), (0.22630449, 0.11846927, 0.00014), (0.2265359, 0.118, 0.00014), (0.2268266, 0.117564954, 0.00014), (0.22717157, 0.11717157, 0.00014), (0.22756496, 0.11682659, 0.00014), (0.228, 0.1165359, 0.00014), (0.22846927, 0.11630448, 0.00014), (0.22896473, 0.1161363, 0.00014), (0.2294779, 0.11603422, 0.00014), (0.23, 0.116, 0.00014), (0.23052211, 0.11603422, 0.00014), (0.23103528, 0.1161363, 0.00014), (0.23153074, 0.11630448, 0.00014), (0.232, 0.1165359, 0.00014), (0.23243505, 0.11682659, 0.00014), (0.23282842, 0.11717157, 0.00014), (0.23317342, 0.117564954, 0.00014), (0.2334641, 0.118, 0.00014), (0.23369552, 0.11846927, 0.00014), (0.2338637, 0.118964724, 0.00014), (0.23396578, 0.1194779, 0.00014)]
        }

        def Mesh "A4CornerMarker_2"
        {
            int[] faceVertexCounts = [3, 3, 3, 3, 3, 3, 3, 3, 3, 3, 3, 3, 3, 3, 3, 3, 3, 3, 3, 3, 3, 3, 3, 3, 3, 3, 3, 3, 3, 3, 3, 3, 3, 3, 3, 3, 3, 3, 3, 3, 3, 3, 3, 3, 3, 3, 3, 3]
            int[] faceVertexIndices = [0, 1, 2, 0, 2, 3, 0, 3, 4, 0, 4, 5, 0, 5, 6, 0, 6, 7, 0, 7, 8, 0, 8, 9, 0, 9, 10, 0, 10, 11, 0, 11, 12, 0, 12, 13, 0, 13, 14, 0, 14, 15, 0, 15, 16, 0, 16, 17, 0, 17, 18, 0, 18, 19, 0, 19, 20, 0, 20, 21, 0, 21, 22, 0, 22, 23, 0, 23, 24, 0, 24, 25, 0, 25, 26, 0, 26, 27, 0, 27, 28, 0, 28, 29, 0, 29, 30, 0, 30, 31, 0, 31, 32, 0, 32, 33, 0, 33, 34, 0, 34, 35, 0, 35, 36, 0, 36, 37, 0, 37, 38, 0, 38, 39, 0, 39, 40, 0, 40, 41, 0, 41, 42, 0, 42, 43, 0, 43, 44, 0, 44, 45, 0, 45, 46, 0, 46, 47, 0, 47, 48, 0, 48, 1]
            rel material:binding = </World/Materials/blue_corner_marker>
            normal3f[] normals = [(0, 0, 1), (0, 0, 1), (0, 0, 1), (0, 0, 1), (0, 0, 1), (0, 0, 1), (0, 0, 1), (0, 0, 1), (0, 0, 1), (0, 0, 1), (0, 0, 1), (0, 0, 1), (0, 0, 1), (0, 0, 1), (0, 0, 1), (0, 0, 1), (0, 0, 1), (0, 0, 1), (0, 0, 1), (0, 0, 1), (0, 0, 1), (0, 0, 1), (0, 0, 1), (0, 0, 1), (0, 0, 1), (0, 0, 1), (0, 0, 1), (0, 0, 1), (0, 0, 1), (0, 0, 1), (0, 0, 1), (0, 0, 1), (0, 0, 1), (0, 0, 1), (0, 0, 1), (0, 0, 1), (0, 0, 1), (0, 0, 1), (0, 0, 1), (0, 0, 1), (0, 0, 1), (0, 0, 1), (0, 0, 1), (0, 0, 1), (0, 0, 1), (0, 0, 1), (0, 0, 1), (0, 0, 1)] (
                interpolation = "uniform"
            )
            point3f[] points = [(0.4, 0.12, 0.00014), (0.404, 0.12, 0.00014), (0.40396577, 0.120522104, 0.00014), (0.4038637, 0.12103528, 0.00014), (0.40369552, 0.121530734, 0.00014), (0.4034641, 0.122, 0.00014), (0.40317342, 0.12243505, 0.00014), (0.40282843, 0.122828424, 0.00014), (0.40243503, 0.123173416, 0.00014), (0.402, 0.1234641, 0.00014), (0.40153074, 0.123695515, 0.00014), (0.40103528, 0.123863705, 0.00014), (0.4005221, 0.12396578, 0.00014), (0.4, 0.124, 0.00014), (0.3994779, 0.12396578, 0.00014), (0.39896473, 0.123863705, 0.00014), (0.39846927, 0.123695515, 0.00014), (0.398, 0.1234641, 0.00014), (0.39756495, 0.123173416, 0.00014), (0.3971716, 0.122828424, 0.00014), (0.3968266, 0.12243505, 0.00014), (0.3965359, 0.122, 0.00014), (0.3963045, 0.121530734, 0.00014), (0.39613628, 0.12103528, 0.00014), (0.3960342, 0.120522104, 0.00014), (0.396, 0.12, 0.00014), (0.3960342, 0.1194779, 0.00014), (0.39613628, 0.118964724, 0.00014), (0.3963045, 0.11846927, 0.00014), (0.3965359, 0.118, 0.00014), (0.3968266, 0.117564954, 0.00014), (0.3971716, 0.11717157, 0.00014), (0.39756495, 0.11682659, 0.00014), (0.398, 0.1165359, 0.00014), (0.39846927, 0.11630448, 0.00014), (0.39896473, 0.1161363, 0.00014), (0.3994779, 0.11603422, 0.00014), (0.4, 0.116, 0.00014), (0.4005221, 0.11603422, 0.00014), (0.40103528, 0.1161363, 0.00014), (0.40153074, 0.11630448, 0.00014), (0.402, 0.1165359, 0.00014), (0.40243503, 0.11682659, 0.00014), (0.40282843, 0.11717157, 0.00014), (0.40317342, 0.117564954, 0.00014), (0.4034641, 0.118, 0.00014), (0.40369552, 0.11846927, 0.00014), (0.4038637, 0.118964724, 0.00014), (0.40396577, 0.1194779, 0.00014)]
        }

        def Mesh "A4CornerMarker_3"
        {
            int[] faceVertexCounts = [3, 3, 3, 3, 3, 3, 3, 3, 3, 3, 3, 3, 3, 3, 3, 3, 3, 3, 3, 3, 3, 3, 3, 3, 3, 3, 3, 3, 3, 3, 3, 3, 3, 3, 3, 3, 3, 3, 3, 3, 3, 3, 3, 3, 3, 3, 3, 3]
            int[] faceVertexIndices = [0, 1, 2, 0, 2, 3, 0, 3, 4, 0, 4, 5, 0, 5, 6, 0, 6, 7, 0, 7, 8, 0, 8, 9, 0, 9, 10, 0, 10, 11, 0, 11, 12, 0, 12, 13, 0, 13, 14, 0, 14, 15, 0, 15, 16, 0, 16, 17, 0, 17, 18, 0, 18, 19, 0, 19, 20, 0, 20, 21, 0, 21, 22, 0, 22, 23, 0, 23, 24, 0, 24, 25, 0, 25, 26, 0, 26, 27, 0, 27, 28, 0, 28, 29, 0, 29, 30, 0, 30, 31, 0, 31, 32, 0, 32, 33, 0, 33, 34, 0, 34, 35, 0, 35, 36, 0, 36, 37, 0, 37, 38, 0, 38, 39, 0, 39, 40, 0, 40, 41, 0, 41, 42, 0, 42, 43, 0, 43, 44, 0, 44, 45, 0, 45, 46, 0, 46, 47, 0, 47, 48, 0, 48, 1]
            rel material:binding = </World/Materials/blue_corner_marker>
            normal3f[] normals = [(0, 0, 1), (0, 0, 1), (0, 0, 1), (0, 0, 1), (0, 0, 1), (0, 0, 1), (0, 0, 1), (0, 0, 1), (0, 0, 1), (0, 0, 1), (0, 0, 1), (0, 0, 1), (0, 0, 1), (0, 0, 1), (0, 0, 1), (0, 0, 1), (0, 0, 1), (0, 0, 1), (0, 0, 1), (0, 0, 1), (0, 0, 1), (0, 0, 1), (0, 0, 1), (0, 0, 1), (0, 0, 1), (0, 0, 1), (0, 0, 1), (0, 0, 1), (0, 0, 1), (0, 0, 1), (0, 0, 1), (0, 0, 1), (0, 0, 1), (0, 0, 1), (0, 0, 1), (0, 0, 1), (0, 0, 1), (0, 0, 1), (0, 0, 1), (0, 0, 1), (0, 0, 1), (0, 0, 1), (0, 0, 1), (0, 0, 1), (0, 0, 1), (0, 0, 1), (0, 0, 1), (0, 0, 1)] (
                interpolation = "uniform"
            )
            point3f[] points = [(0.23, 0.37, 0.00014), (0.234, 0.37, 0.00014), (0.23396578, 0.3705221, 0.00014), (0.2338637, 0.37103528, 0.00014), (0.23369552, 0.37153074, 0.00014), (0.2334641, 0.372, 0.00014), (0.23317342, 0.37243503, 0.00014), (0.23282842, 0.37282842, 0.00014), (0.23243505, 0.37317342, 0.00014), (0.232, 0.3734641, 0.00014), (0.23153074, 0.37369552, 0.00014), (0.23103528, 0.3738637, 0.00014), (0.23052211, 0.37396577, 0.00014), (0.23, 0.374, 0.00014), (0.2294779, 0.37396577, 0.00014), (0.22896473, 0.3738637, 0.00014), (0.22846927, 0.37369552, 0.00014), (0.228, 0.3734641, 0.00014), (0.22756496, 0.37317342, 0.00014), (0.22717157, 0.37282842, 0.00014), (0.2268266, 0.37243503, 0.00014), (0.2265359, 0.372, 0.00014), (0.22630449, 0.37153074, 0.00014), (0.2261363, 0.37103528, 0.00014), (0.22603422, 0.3705221, 0.00014), (0.226, 0.37, 0.00014), (0.22603422, 0.3694779, 0.00014), (0.2261363, 0.36896473, 0.00014), (0.22630449, 0.36846927, 0.00014), (0.2265359, 0.368, 0.00014), (0.2268266, 0.36756495, 0.00014), (0.22717157, 0.3671716, 0.00014), (0.22756496, 0.3668266, 0.00014), (0.228, 0.3665359, 0.00014), (0.22846927, 0.3663045, 0.00014), (0.22896473, 0.36613628, 0.00014), (0.2294779, 0.3660342, 0.00014), (0.23, 0.366, 0.00014), (0.23052211, 0.3660342, 0.00014), (0.23103528, 0.36613628, 0.00014), (0.23153074, 0.3663045, 0.00014), (0.232, 0.3665359, 0.00014), (0.23243505, 0.3668266, 0.00014), (0.23282842, 0.3671716, 0.00014), (0.23317342, 0.36756495, 0.00014), (0.2334641, 0.368, 0.00014), (0.23369552, 0.36846927, 0.00014), (0.2338637, 0.36896473, 0.00014), (0.23396578, 0.3694779, 0.00014)]
        }

        def Mesh "A4CornerMarker_4"
        {
            int[] faceVertexCounts = [3, 3, 3, 3, 3, 3, 3, 3, 3, 3, 3, 3, 3, 3, 3, 3, 3, 3, 3, 3, 3, 3, 3, 3, 3, 3, 3, 3, 3, 3, 3, 3, 3, 3, 3, 3, 3, 3, 3, 3, 3, 3, 3, 3, 3, 3, 3, 3]
            int[] faceVertexIndices = [0, 1, 2, 0, 2, 3, 0, 3, 4, 0, 4, 5, 0, 5, 6, 0, 6, 7, 0, 7, 8, 0, 8, 9, 0, 9, 10, 0, 10, 11, 0, 11, 12, 0, 12, 13, 0, 13, 14, 0, 14, 15, 0, 15, 16, 0, 16, 17, 0, 17, 18, 0, 18, 19, 0, 19, 20, 0, 20, 21, 0, 21, 22, 0, 22, 23, 0, 23, 24, 0, 24, 25, 0, 25, 26, 0, 26, 27, 0, 27, 28, 0, 28, 29, 0, 29, 30, 0, 30, 31, 0, 31, 32, 0, 32, 33, 0, 33, 34, 0, 34, 35, 0, 35, 36, 0, 36, 37, 0, 37, 38, 0, 38, 39, 0, 39, 40, 0, 40, 41, 0, 41, 42, 0, 42, 43, 0, 43, 44, 0, 44, 45, 0, 45, 46, 0, 46, 47, 0, 47, 48, 0, 48, 1]
            rel material:binding = </World/Materials/blue_corner_marker>
            normal3f[] normals = [(0, 0, 1), (0, 0, 1), (0, 0, 1), (0, 0, 1), (0, 0, 1), (0, 0, 1), (0, 0, 1), (0, 0, 1), (0, 0, 1), (0, 0, 1), (0, 0, 1), (0, 0, 1), (0, 0, 1), (0, 0, 1), (0, 0, 1), (0, 0, 1), (0, 0, 1), (0, 0, 1), (0, 0, 1), (0, 0, 1), (0, 0, 1), (0, 0, 1), (0, 0, 1), (0, 0, 1), (0, 0, 1), (0, 0, 1), (0, 0, 1), (0, 0, 1), (0, 0, 1), (0, 0, 1), (0, 0, 1), (0, 0, 1), (0, 0, 1), (0, 0, 1), (0, 0, 1), (0, 0, 1), (0, 0, 1), (0, 0, 1), (0, 0, 1), (0, 0, 1), (0, 0, 1), (0, 0, 1), (0, 0, 1), (0, 0, 1), (0, 0, 1), (0, 0, 1), (0, 0, 1), (0, 0, 1)] (
                interpolation = "uniform"
            )
            point3f[] points = [(0.4, 0.37, 0.00014), (0.404, 0.37, 0.00014), (0.40396577, 0.3705221, 0.00014), (0.4038637, 0.37103528, 0.00014), (0.40369552, 0.37153074, 0.00014), (0.4034641, 0.372, 0.00014), (0.40317342, 0.37243503, 0.00014), (0.40282843, 0.37282842, 0.00014), (0.40243503, 0.37317342, 0.00014), (0.402, 0.3734641, 0.00014), (0.40153074, 0.37369552, 0.00014), (0.40103528, 0.3738637, 0.00014), (0.4005221, 0.37396577, 0.00014), (0.4, 0.374, 0.00014), (0.3994779, 0.37396577, 0.00014), (0.39896473, 0.3738637, 0.00014), (0.39846927, 0.37369552, 0.00014), (0.398, 0.3734641, 0.00014), (0.39756495, 0.37317342, 0.00014), (0.3971716, 0.37282842, 0.00014), (0.3968266, 0.37243503, 0.00014), (0.3965359, 0.372, 0.00014), (0.3963045, 0.37153074, 0.00014), (0.39613628, 0.37103528, 0.00014), (0.3960342, 0.3705221, 0.00014), (0.396, 0.37, 0.00014), (0.3960342, 0.3694779, 0.00014), (0.39613628, 0.36896473, 0.00014), (0.3963045, 0.36846927, 0.00014), (0.3965359, 0.368, 0.00014), (0.3968266, 0.36756495, 0.00014), (0.3971716, 0.3671716, 0.00014), (0.39756495, 0.3668266, 0.00014), (0.398, 0.3665359, 0.00014), (0.39846927, 0.3663045, 0.00014), (0.39896473, 0.36613628, 0.00014), (0.3994779, 0.3660342, 0.00014), (0.4, 0.366, 0.00014), (0.4005221, 0.3660342, 0.00014), (0.40103528, 0.36613628, 0.00014), (0.40153074, 0.3663045, 0.00014), (0.402, 0.3665359, 0.00014), (0.40243503, 0.3668266, 0.00014), (0.40282843, 0.3671716, 0.00014), (0.40317342, 0.36756495, 0.00014), (0.4034641, 0.368, 0.00014), (0.40369552, 0.36846927, 0.00014), (0.4038637, 0.36896473, 0.00014), (0.40396577, 0.3694779, 0.00014)]
        }

        def Mesh "A4CenterMarker"
        {
            int[] faceVertexCounts = [3, 3, 3, 3, 3, 3, 3, 3, 3, 3, 3, 3, 3, 3, 3, 3, 3, 3, 3, 3, 3, 3, 3, 3, 3, 3, 3, 3, 3, 3, 3, 3, 3, 3, 3, 3, 3, 3, 3, 3, 3, 3, 3, 3, 3, 3, 3, 3]
            int[] faceVertexIndices = [0, 1, 2, 0, 2, 3, 0, 3, 4, 0, 4, 5, 0, 5, 6, 0, 6, 7, 0, 7, 8, 0, 8, 9, 0, 9, 10, 0, 10, 11, 0, 11, 12, 0, 12, 13, 0, 13, 14, 0, 14, 15, 0, 15, 16, 0, 16, 17, 0, 17, 18, 0, 18, 19, 0, 19, 20, 0, 20, 21, 0, 21, 22, 0, 22, 23, 0, 23, 24, 0, 24, 25, 0, 25, 26, 0, 26, 27, 0, 27, 28, 0, 28, 29, 0, 29, 30, 0, 30, 31, 0, 31, 32, 0, 32, 33, 0, 33, 34, 0, 34, 35, 0, 35, 36, 0, 36, 37, 0, 37, 38, 0, 38, 39, 0, 39, 40, 0, 40, 41, 0, 41, 42, 0, 42, 43, 0, 43, 44, 0, 44, 45, 0, 45, 46, 0, 46, 47, 0, 47, 48, 0, 48, 1]
            rel material:binding = </World/Materials/blue_corner_marker>
            normal3f[] normals = [(0, 0, 1), (0, 0, 1), (0, 0, 1), (0, 0, 1), (0, 0, 1), (0, 0, 1), (0, 0, 1), (0, 0, 1), (0, 0, 1), (0, 0, 1), (0, 0, 1), (0, 0, 1), (0, 0, 1), (0, 0, 1), (0, 0, 1), (0, 0, 1), (0, 0, 1), (0, 0, 1), (0, 0, 1), (0, 0, 1), (0, 0, 1), (0, 0, 1), (0, 0, 1), (0, 0, 1), (0, 0, 1), (0, 0, 1), (0, 0, 1), (0, 0, 1), (0, 0, 1), (0, 0, 1), (0, 0, 1), (0, 0, 1), (0, 0, 1), (0, 0, 1), (0, 0, 1), (0, 0, 1), (0, 0, 1), (0, 0, 1), (0, 0, 1), (0, 0, 1), (0, 0, 1), (0, 0, 1), (0, 0, 1), (0, 0, 1), (0, 0, 1), (0, 0, 1), (0, 0, 1), (0, 0, 1)] (
                interpolation = "uniform"
            )
            point3f[] points = [(0.315, 0.245, 0.00014), (0.319, 0.245, 0.00014), (0.3189658, 0.24552211, 0.00014), (0.3188637, 0.24603528, 0.00014), (0.31869552, 0.24653073, 0.00014), (0.3184641, 0.247, 0.00014), (0.3181734, 0.24743505, 0.00014), (0.31782842, 0.24782842, 0.00014), (0.31743506, 0.24817342, 0.00014), (0.317, 0.24846411, 0.00014), (0.31653073, 0.24869552, 0.00014), (0.31603527, 0.2488637, 0.00014), (0.3155221, 0.24896578, 0.00014), (0.315, 0.249, 0.00014), (0.3144779, 0.24896578, 0.00014), (0.31396472, 0.2488637, 0.00014), (0.31346926, 0.24869552, 0.00014), (0.313, 0.24846411, 0.00014), (0.31256497, 0.24817342, 0.00014), (0.31217158, 0.24782842, 0.00014), (0.3118266, 0.24743505, 0.00014), (0.3115359, 0.247, 0.00014), (0.31130448, 0.24653073, 0.00014), (0.3111363, 0.24603528, 0.00014), (0.31103423, 0.24552211, 0.00014), (0.311, 0.245, 0.00014), (0.31103423, 0.2444779, 0.00014), (0.3111363, 0.24396472, 0.00014), (0.31130448, 0.24346927, 0.00014), (0.3115359, 0.243, 0.00014), (0.3118266, 0.24256496, 0.00014), (0.31217158, 0.24217157, 0.00014), (0.31256497, 0.2418266, 0.00014), (0.313, 0.2415359, 0.00014), (0.31346926, 0.24130449, 0.00014), (0.31396472, 0.2411363, 0.00014), (0.3144779, 0.24103422, 0.00014), (0.315, 0.241, 0.00014), (0.3155221, 0.24103422, 0.00014), (0.31603527, 0.2411363, 0.00014), (0.31653073, 0.24130449, 0.00014), (0.317, 0.2415359, 0.00014), (0.31743506, 0.2418266, 0.00014), (0.31782842, 0.24217157, 0.00014), (0.3181734, 0.24256496, 0.00014), (0.3184641, 0.243, 0.00014), (0.31869552, 0.24346927, 0.00014), (0.3188637, 0.24396472, 0.00014), (0.3189658, 0.2444779, 0.00014)]
        }

        def Cylinder "RightDiskAluminumTop" (
            prepend apiSchemas = ["PhysicsCollisionAPI"]
        )
        {
            uniform token axis = "Z"
            double height = 0.104
            rel material:binding = </World/Materials/aluminum_disk>
            custom token physics:approximation = "convexHull"
            bool physics:collisionEnabled = 1
            double radius = 0.05
            double3 xformOp:translate = (0.59, 0.078, 0.052)
            uniform token[] xformOpOrder = ["xformOp:translate"]
        }

        def Cylinder "RightDiskBlackBase" (
            prepend apiSchemas = ["PhysicsCollisionAPI"]
        )
        {
            uniform token axis = "Z"
            double height = 0.024
            rel material:binding = </World/Materials/dark_base>
            custom token physics:approximation = "convexHull"
            bool physics:collisionEnabled = 1
            double radius = 0.052
            double3 xformOp:translate = (0.59, 0.078, 0.012)
            uniform token[] xformOpOrder = ["xformOp:translate"]
        }

        def Mesh "RightDiskCenterYellowMarker"
        {
            int[] faceVertexCounts = [3, 3, 3, 3, 3, 3, 3, 3, 3, 3, 3, 3, 3, 3, 3, 3, 3, 3, 3, 3, 3, 3, 3, 3, 3, 3, 3, 3, 3, 3, 3, 3, 3, 3, 3, 3, 3, 3, 3, 3, 3, 3, 3, 3, 3, 3, 3, 3]
            int[] faceVertexIndices = [0, 1, 2, 0, 2, 3, 0, 3, 4, 0, 4, 5, 0, 5, 6, 0, 6, 7, 0, 7, 8, 0, 8, 9, 0, 9, 10, 0, 10, 11, 0, 11, 12, 0, 12, 13, 0, 13, 14, 0, 14, 15, 0, 15, 16, 0, 16, 17, 0, 17, 18, 0, 18, 19, 0, 19, 20, 0, 20, 21, 0, 21, 22, 0, 22, 23, 0, 23, 24, 0, 24, 25, 0, 25, 26, 0, 26, 27, 0, 27, 28, 0, 28, 29, 0, 29, 30, 0, 30, 31, 0, 31, 32, 0, 32, 33, 0, 33, 34, 0, 34, 35, 0, 35, 36, 0, 36, 37, 0, 37, 38, 0, 38, 39, 0, 39, 40, 0, 40, 41, 0, 41, 42, 0, 42, 43, 0, 43, 44, 0, 44, 45, 0, 45, 46, 0, 46, 47, 0, 47, 48, 0, 48, 1]
            rel material:binding = </World/Materials/yellow_center_marker>
            normal3f[] normals = [(0, 0, 1), (0, 0, 1), (0, 0, 1), (0, 0, 1), (0, 0, 1), (0, 0, 1), (0, 0, 1), (0, 0, 1), (0, 0, 1), (0, 0, 1), (0, 0, 1), (0, 0, 1), (0, 0, 1), (0, 0, 1), (0, 0, 1), (0, 0, 1), (0, 0, 1), (0, 0, 1), (0, 0, 1), (0, 0, 1), (0, 0, 1), (0, 0, 1), (0, 0, 1), (0, 0, 1), (0, 0, 1), (0, 0, 1), (0, 0, 1), (0, 0, 1), (0, 0, 1), (0, 0, 1), (0, 0, 1), (0, 0, 1), (0, 0, 1), (0, 0, 1), (0, 0, 1), (0, 0, 1), (0, 0, 1), (0, 0, 1), (0, 0, 1), (0, 0, 1), (0, 0, 1), (0, 0, 1), (0, 0, 1), (0, 0, 1), (0, 0, 1), (0, 0, 1), (0, 0, 1), (0, 0, 1)] (
                interpolation = "uniform"
            )
            point3f[] points = [(0.59, 0.078, 0.1043), (0.5945, 0.078, 0.1043), (0.5944615, 0.07858737, 0.1043), (0.59434664, 0.079164684, 0.1043), (0.59415746, 0.07972208, 0.1043), (0.5938971, 0.08025, 0.1043), (0.5935701, 0.08073942, 0.1043), (0.59318197, 0.08118198, 0.1043), (0.5927394, 0.08157009, 0.1043), (0.59225, 0.08189712, 0.1043), (0.5917221, 0.082157455, 0.1043), (0.5911647, 0.08234666, 0.1043), (0.5905874, 0.0824615, 0.1043), (0.59, 0.0825, 0.1043), (0.5894126, 0.0824615, 0.1043), (0.5888353, 0.08234666, 0.1043), (0.58827794, 0.082157455, 0.1043), (0.58775, 0.08189712, 0.1043), (0.58726054, 0.08157009, 0.1043), (0.58681804, 0.08118198, 0.1043), (0.5864299, 0.08073942, 0.1043), (0.5861029, 0.08025, 0.1043), (0.58584255, 0.07972208, 0.1043), (0.5856533, 0.079164684, 0.1043), (0.5855385, 0.07858737, 0.1043), (0.5855, 0.078, 0.1043), (0.5855385, 0.077412635, 0.1043), (0.5856533, 0.07683531, 0.1043), (0.58584255, 0.07627793, 0.1043), (0.5861029, 0.07575, 0.1043), (0.5864299, 0.07526057, 0.1043), (0.58681804, 0.07481802, 0.1043), (0.58726054, 0.07442991, 0.1043), (0.58775, 0.074102886, 0.1043), (0.58827794, 0.07384254, 0.1043), (0.5888353, 0.07365333, 0.1043), (0.5894126, 0.0735385, 0.1043), (0.59, 0.0735, 0.1043), (0.5905874, 0.0735385, 0.1043), (0.5911647, 0.07365333, 0.1043), (0.5917221, 0.07384254, 0.1043), (0.59225, 0.074102886, 0.1043), (0.5927394, 0.07442991, 0.1043), (0.59318197, 0.07481802, 0.1043), (0.5935701, 0.07526057, 0.1043), (0.5938971, 0.07575, 0.1043), (0.59415746, 0.07627793, 0.1043), (0.59434664, 0.07683531, 0.1043), (0.5944615, 0.077412635, 0.1043)]
        }

        def Cube "RedSpecimenBlock" (
            prepend apiSchemas = ["PhysicsCollisionAPI", "PhysicsRigidBodyAPI", "PhysicsMassAPI", "PhysxCollisionAPI", "PhysxRigidBodyAPI", "PhysxContactReportAPI"]
        )
        {
            rel material:binding = </World/Materials/red_test_cube>
            custom rel material:binding:physics = </World/Materials/pla_specimen_contact_physics>
            bool physics:collisionEnabled = 1
            float physics:mass = 0.03
            bool physics:rigidBodyEnabled = 1
            custom float physxCollision:contactOffset = 0.003
            custom float physxCollision:restOffset = 0
            custom float physxContactReport:threshold = 0.2
            custom bool physxRigidBody:enableCCD = 1
            custom float physxRigidBody:maxDepenetrationVelocity = 0.2
            custom int physxRigidBody:solverPositionIterationCount = 32
            custom int physxRigidBody:solverVelocityIterationCount = 4
            double size = 1
            float3 xformOp:scale = (0.03, 0.03, 0.03)
            double3 xformOp:translate = (0.4, 0.3, 0.0152)
            uniform token[] xformOpOrder = ["xformOp:translate", "xformOp:scale"]
        }
    }

    def Xform "Robot" (
        prepend references = @/home/jin/autonomous_researcher/sim/robotis_omx/omx/omx.usda@</omx>
    )
    {
        float xformOp:rotateZ = 90
        double3 xformOp:translate = (0.315, 0.06, -0.02)
        uniform token[] xformOpOrder = ["xformOp:translate", "xformOp:rotateZ"]
    }

    def "Lights"
    {
        def DomeLight "SoftLabDome"
        {
            float inputs:intensity = 450
        }

        def DistantLight "OverheadLight"
        {
            float inputs:angle = 0.35
            float inputs:intensity = 1200
        }
    }
}
