<?xml version="1.0" encoding="UTF-8" standalone="no"?>
<!DOCTYPE svg PUBLIC "-//W3C//DTD SVG 1.1//EN"
 "http://www.w3.org/Graphics/SVG/1.1/DTD/svg11.dtd">
<!-- Generated by graphviz version 2.43.0 (0)
 -->
<!-- Title: knowledge_api_connection_architecture Pages: 1 -->
<svg width="1565pt" height="195pt"
 viewBox="0.00 0.00 1564.94 195.00" xmlns="http://www.w3.org/2000/svg" xmlns:xlink="http://www.w3.org/1999/xlink">
<g id="graph0" class="graph" transform="scale(1 1) rotate(0) translate(18 177)">
<title>knowledge_api_connection_architecture</title>
<text text-anchor="middle" x="764.47" y="-140.6" font-family="DejaVu Sans" font-size="18.00">Knowledge API and connection architecture</text>
<!-- api -->
<g id="node1" class="node">
<title>api</title>
<path fill="#eef4ff" stroke="#315c9b" d="M144,-91C144,-91 12,-91 12,-91 6,-91 0,-85 0,-79 0,-79 0,-67 0,-67 0,-61 6,-55 12,-55 12,-55 144,-55 144,-55 150,-55 156,-61 156,-67 156,-67 156,-79 156,-79 156,-85 150,-91 144,-91"/>
<text text-anchor="middle" x="78" y="-80.26" font-family="DejaVu Sans" font-size="7.80">Knowledge APIs</text>
<text text-anchor="middle" x="78" y="-71.26" font-family="DejaVu Sans" font-size="7.80">outputs · context · activity</text>
<text text-anchor="middle" x="78" y="-62.26" font-family="DejaVu Sans" font-size="7.80">relations · ontology · graph · Graphify</text>
</g>
<!-- service -->
<g id="node2" class="node">
<title>service</title>
<polygon fill="#f2ecfa" stroke="#6b4c9a" points="390.47,-91 290.47,-91 290.47,-87 286.47,-87 286.47,-83 290.47,-83 290.47,-63 286.47,-63 286.47,-59 290.47,-59 290.47,-55 390.47,-55 390.47,-91"/>
<polyline fill="none" stroke="#6b4c9a" points="290.47,-87 294.47,-87 294.47,-83 290.47,-83 "/>
<polyline fill="none" stroke="#6b4c9a" points="290.47,-63 294.47,-63 294.47,-59 290.47,-59 "/>
<text text-anchor="middle" x="340.47" y="-75.76" font-family="DejaVu Sans" font-size="7.80">Knowledge service</text>
<text text-anchor="middle" x="340.47" y="-66.76" font-family="DejaVu Sans" font-size="7.80">validated ingest/query</text>
</g>
<!-- api&#45;&gt;service -->
<g id="edge1" class="edge">
<title>api&#45;&gt;service</title>
<path fill="none" stroke="#52667a" d="M156.09,-73C197.08,-73 246.53,-73 283.75,-73"/>
<polygon fill="#52667a" stroke="#52667a" points="283.88,-75.17 290.08,-73 283.88,-70.83 283.88,-75.17"/>
</g>
<!-- gate -->
<g id="node3" class="node">
<title>gate</title>
<path fill="#fff1d6" stroke="#b26a00" d="M691.14,-68.84C691.14,-68.84 572.74,-47.16 572.74,-47.16 566.84,-46.08 566.84,-43.92 572.74,-42.84 572.74,-42.84 691.14,-21.16 691.14,-21.16 697.04,-20.08 708.84,-20.08 714.74,-21.16 714.74,-21.16 833.14,-42.84 833.14,-42.84 839.04,-43.92 839.04,-46.08 833.14,-47.16 833.14,-47.16 714.74,-68.84 714.74,-68.84 708.84,-69.92 697.04,-69.92 691.14,-68.84"/>
<text text-anchor="middle" x="702.94" y="-47.76" font-family="DejaVu Sans" font-size="7.80">Provenance · ontology · duplicate</text>
<text text-anchor="middle" x="702.94" y="-38.76" font-family="DejaVu Sans" font-size="7.80">existing&#45;node · evidence gate</text>
</g>
<!-- service&#45;&gt;gate -->
<g id="edge2" class="edge">
<title>service&#45;&gt;gate</title>
<path fill="none" stroke="#52667a" d="M390.84,-69.17C443.51,-65.07 528.55,-58.47 596.41,-53.2"/>
<polygon fill="#52667a" stroke="#52667a" points="596.91,-55.34 602.92,-52.69 596.57,-51.01 596.91,-55.34"/>
</g>
<!-- local -->
<g id="node4" class="node">
<title>local</title>
<polygon fill="#f2ecfa" stroke="#6b4c9a" points="1050.94,-107 921.94,-107 921.94,-103 917.94,-103 917.94,-99 921.94,-99 921.94,-79 917.94,-79 917.94,-75 921.94,-75 921.94,-71 1050.94,-71 1050.94,-107"/>
<polyline fill="none" stroke="#6b4c9a" points="921.94,-103 925.94,-103 925.94,-99 921.94,-99 "/>
<polyline fill="none" stroke="#6b4c9a" points="921.94,-79 925.94,-79 925.94,-75 921.94,-75 "/>
<text text-anchor="middle" x="986.44" y="-91.76" font-family="DejaVu Sans" font-size="7.80">Audit ledger · JSONL records</text>
<text text-anchor="middle" x="986.44" y="-82.76" font-family="DejaVu Sans" font-size="7.80">relation store · durable outbox</text>
</g>
<!-- gate&#45;&gt;local -->
<g id="edge3" class="edge">
<title>gate&#45;&gt;local</title>
<path fill="none" stroke="#52667a" d="M780.12,-56.91C822.25,-63.49 874.22,-71.62 915.34,-78.04"/>
<polygon fill="#52667a" stroke="#52667a" points="915.13,-80.21 921.59,-79.02 915.8,-75.92 915.13,-80.21"/>
</g>
<!-- blocked -->
<g id="node9" class="node">
<title>blocked</title>
<path fill="#ffe9e7" stroke="#a33a32" stroke-width="2" d="M1041.94,-52C1041.94,-52 930.94,-52 930.94,-52 924.94,-52 918.94,-46 918.94,-40 918.94,-40 918.94,-28 918.94,-28 918.94,-22 924.94,-16 930.94,-16 930.94,-16 1041.94,-16 1041.94,-16 1047.94,-16 1053.94,-22 1053.94,-28 1053.94,-28 1053.94,-40 1053.94,-40 1053.94,-46 1047.94,-52 1041.94,-52"/>
<text text-anchor="middle" x="986.44" y="-32.26" font-family="DejaVu Sans" font-size="7.80">No raw Cypher / auto activation</text>
</g>
<!-- gate&#45;&gt;blocked -->
<g id="edge9" class="edge">
<title>gate&#45;&gt;blocked</title>
<path fill="none" stroke="#52667a" stroke-dasharray="5,2" d="M820.47,-40.45C852.87,-39.18 887.03,-37.85 915.81,-36.72"/>
<polygon fill="#52667a" stroke="#52667a" points="918.2,-33.53 918.44,-39.72 917.2,-39.77 916.96,-33.57 918.2,-33.53"/>
<polyline fill="none" stroke="#52667a" points="918.94,-36.6 915.84,-36.72 "/>
<text text-anchor="middle" x="881.94" y="-40.56" font-family="DejaVu Sans" font-size="6.80">prohibited</text>
</g>
<!-- graph_backend -->
<g id="node5" class="node">
<title>graph_backend</title>
<polygon fill="#f2ecfa" stroke="#6b4c9a" points="1288.94,-131 1146.94,-131 1146.94,-127 1142.94,-127 1142.94,-123 1146.94,-123 1146.94,-103 1142.94,-103 1142.94,-99 1146.94,-99 1146.94,-95 1288.94,-95 1288.94,-131"/>
<polyline fill="none" stroke="#6b4c9a" points="1146.94,-127 1150.94,-127 1150.94,-123 1146.94,-123 "/>
<polyline fill="none" stroke="#6b4c9a" points="1146.94,-103 1150.94,-103 1150.94,-99 1146.94,-99 "/>
<text text-anchor="middle" x="1217.94" y="-115.76" font-family="DejaVu Sans" font-size="7.80">Optional graph / Neo4j / Graphify</text>
<text text-anchor="middle" x="1217.94" y="-106.76" font-family="DejaVu Sans" font-size="7.80">bounded query + receipt</text>
</g>
<!-- local&#45;&gt;graph_backend -->
<g id="edge4" class="edge">
<title>local&#45;&gt;graph_backend</title>
<path fill="none" stroke="#52667a" stroke-dasharray="5,2" d="M1051.06,-95.65C1078.69,-98.54 1111.28,-101.95 1140.24,-104.98"/>
<polygon fill="#52667a" stroke="#52667a" points="1140.35,-107.17 1146.74,-105.66 1140.8,-102.86 1140.35,-107.17"/>
<text text-anchor="middle" x="1100.44" y="-104.56" font-family="DejaVu Sans" font-size="6.80">configured sync</text>
</g>
<!-- evidence -->
<g id="node8" class="node">
<title>evidence</title>
<polygon fill="#e9f7ef" stroke="#2e7d59" points="1522.94,-104 1350.94,-104 1350.94,-68 1528.94,-68 1528.94,-98 1522.94,-104"/>
<polyline fill="none" stroke="#2e7d59" points="1522.94,-104 1522.94,-98 "/>
<polyline fill="none" stroke="#2e7d59" points="1528.94,-98 1522.94,-98 "/>
<text text-anchor="middle" x="1439.94" y="-88.76" font-family="DejaVu Sans" font-size="7.80">Ledger event · outbox state · graph receipt</text>
<text text-anchor="middle" x="1439.94" y="-79.76" font-family="DejaVu Sans" font-size="7.80">proposal · immutable decision</text>
</g>
<!-- local&#45;&gt;evidence -->
<g id="edge6" class="edge">
<title>local&#45;&gt;evidence</title>
<path fill="none" stroke="#2e7d59" d="M1051.04,-84.1C1080.24,-82.08 1115.33,-79.99 1146.94,-79 1210.02,-77.02 1225.85,-77.53 1288.94,-79 1306.97,-79.42 1326.21,-80.12 1344.69,-80.93"/>
<polygon fill="#2e7d59" stroke="#2e7d59" points="1344.63,-83.1 1350.92,-81.21 1344.83,-78.76 1344.63,-83.1"/>
<text text-anchor="middle" x="1217.94" y="-80.56" font-family="DejaVu Sans" font-size="6.80">durable evidence</text>
</g>
<!-- graph_backend&#45;&gt;evidence -->
<g id="edge5" class="edge">
<title>graph_backend&#45;&gt;evidence</title>
<path fill="none" stroke="#2e7d59" d="M1289.16,-104.38C1306.78,-102.22 1325.98,-99.86 1344.57,-97.58"/>
<polygon fill="#2e7d59" stroke="#2e7d59" points="1344.96,-99.72 1350.85,-96.81 1344.43,-95.41 1344.96,-99.72"/>
<text text-anchor="middle" x="1319.94" y="-102.56" font-family="DejaVu Sans" font-size="6.80">receipt</text>
</g>
<!-- review -->
<g id="node6" class="node">
<title>review</title>
<path fill="#fff1d6" stroke="#b26a00" d="M328.66,-33.86C328.66,-33.86 252.84,-20.14 252.84,-20.14 246.93,-19.07 246.93,-16.93 252.84,-15.86 252.84,-15.86 328.66,-2.14 328.66,-2.14 334.57,-1.07 346.37,-1.07 352.28,-2.14 352.28,-2.14 428.1,-15.86 428.1,-15.86 434.01,-16.93 434.01,-19.07 428.1,-20.14 428.1,-20.14 352.28,-33.86 352.28,-33.86 346.37,-34.93 334.57,-34.93 328.66,-33.86"/>
<text text-anchor="middle" x="340.47" y="-16.26" font-family="DejaVu Sans" font-size="7.80">Operator relation/edit review</text>
</g>
<!-- review&#45;&gt;gate -->
<g id="edge8" class="edge">
<title>review&#45;&gt;gate</title>
<path fill="none" stroke="#52667a" d="M411.4,-23.24C463.65,-27.15 536,-32.57 595.42,-37.02"/>
<polygon fill="#52667a" stroke="#52667a" points="595.52,-39.2 601.87,-37.5 595.85,-34.88 595.52,-39.2"/>
<text text-anchor="middle" x="500.44" y="-34.56" font-family="DejaVu Sans" font-size="6.80">approved bounded edit</text>
</g>
<!-- model -->
<g id="node7" class="node">
<title>model</title>
<polygon fill="#f2ecfa" stroke="#6b4c9a" points="132.5,-36 23.5,-36 23.5,-32 19.5,-32 19.5,-28 23.5,-28 23.5,-8 19.5,-8 19.5,-4 23.5,-4 23.5,0 132.5,0 132.5,-36"/>
<polyline fill="none" stroke="#6b4c9a" points="23.5,-32 27.5,-32 27.5,-28 23.5,-28 "/>
<polyline fill="none" stroke="#6b4c9a" points="23.5,-8 27.5,-8 27.5,-4 23.5,-4 "/>
<text text-anchor="middle" x="78" y="-20.76" font-family="DejaVu Sans" font-size="7.80">Already&#45;loaded model</text>
<text text-anchor="middle" x="78" y="-11.76" font-family="DejaVu Sans" font-size="7.80">priority&#45;30 reconciliation</text>
</g>
<!-- model&#45;&gt;review -->
<g id="edge7" class="edge">
<title>model&#45;&gt;review</title>
<path fill="none" stroke="#52667a" stroke-dasharray="5,2" d="M132.65,-18C162.03,-18 199.46,-18 234.38,-18"/>
<polygon fill="#52667a" stroke="#52667a" points="234.67,-20.17 240.87,-18 234.67,-15.83 234.67,-20.17"/>
<text text-anchor="middle" x="198.5" y="-19.56" font-family="DejaVu Sans" font-size="6.80">proposal only</text>
</g>
</g>
</svg>
