<?xml version="1.0" encoding="UTF-8" standalone="no"?>
<!DOCTYPE svg PUBLIC "-//W3C//DTD SVG 1.1//EN"
 "http://www.w3.org/Graphics/SVG/1.1/DTD/svg11.dtd">
<!-- Generated by graphviz version 2.43.0 (0)
 -->
<!-- Title: knowledge_closed_loop_handoffs Pages: 1 -->
<svg width="1759pt" height="259pt"
 viewBox="0.00 0.00 1759.20 259.20" xmlns="http://www.w3.org/2000/svg" xmlns:xlink="http://www.w3.org/1999/xlink">
<g id="graph0" class="graph" transform="scale(1 1) rotate(0) translate(21.6 237.6)">
<title>knowledge_closed_loop_handoffs</title>
<polygon fill="white" stroke="transparent" points="-21.6,21.6 -21.6,-237.6 1737.6,-237.6 1737.6,21.6 -21.6,21.6"/>
<text text-anchor="middle" x="858" y="-197.6" font-family="DejaVu Sans" font-size="18.00">Knowledge retains evidence without changing the closed&#45;loop route</text>
<!-- analysis -->
<g id="node1" class="node">
<title>analysis</title>
<path fill="#eef4ff" stroke="#315c9b" d="M584,-188C584,-188 409,-188 409,-188 403,-188 397,-182 397,-176 397,-176 397,-158 397,-158 397,-152 403,-146 409,-146 409,-146 584,-146 584,-146 590,-146 596,-152 596,-158 596,-158 596,-176 596,-176 596,-182 590,-188 584,-188"/>
<text text-anchor="middle" x="496.5" y="-170.6" font-family="DejaVu Sans" font-size="13.00">Analysis</text>
<text text-anchor="middle" x="496.5" y="-156.6" font-family="DejaVu Sans" font-size="13.00">measurements + objective</text>
</g>
<!-- knowledge -->
<g id="node2" class="node">
<title>knowledge</title>
<path fill="#eef4ff" stroke="#315c9b" stroke-width="2" d="M1013,-126C1013,-126 816,-126 816,-126 810,-126 804,-120 804,-114 804,-114 804,-96 804,-96 804,-90 810,-84 816,-84 816,-84 1013,-84 1013,-84 1019,-84 1025,-90 1025,-96 1025,-96 1025,-114 1025,-114 1025,-120 1019,-126 1013,-126"/>
<text text-anchor="middle" x="914.5" y="-108.6" font-family="DejaVu Sans" font-size="13.00">Knowledge</text>
<text text-anchor="middle" x="914.5" y="-94.6" font-family="DejaVu Sans" font-size="13.00">LLM curation + typed memory</text>
</g>
<!-- analysis&#45;&gt;knowledge -->
<g id="edge1" class="edge">
<title>analysis&#45;&gt;knowledge</title>
<path fill="none" stroke="#52667a" d="M596.09,-152.31C656.12,-143.36 733.14,-131.88 796.28,-122.47"/>
<polygon fill="#52667a" stroke="#52667a" points="796.88,-125.03 803.91,-121.33 796.11,-119.84 796.88,-125.03"/>
<text text-anchor="middle" x="708.5" y="-149.2" font-family="DejaVu Sans" font-size="11.00">unchanged scientific values</text>
</g>
<!-- bo -->
<g id="node3" class="node">
<title>bo</title>
<path fill="#eef4ff" stroke="#315c9b" d="M1381,-153C1381,-153 1198,-153 1198,-153 1192,-153 1186,-147 1186,-141 1186,-141 1186,-123 1186,-123 1186,-117 1192,-111 1198,-111 1198,-111 1381,-111 1381,-111 1387,-111 1393,-117 1393,-123 1393,-123 1393,-141 1393,-141 1393,-147 1387,-153 1381,-153"/>
<text text-anchor="middle" x="1289.5" y="-135.6" font-family="DejaVu Sans" font-size="13.00">BO</text>
<text text-anchor="middle" x="1289.5" y="-121.6" font-family="DejaVu Sans" font-size="13.00">existing numerical optimizer</text>
</g>
<!-- knowledge&#45;&gt;bo -->
<g id="edge2" class="edge">
<title>knowledge&#45;&gt;bo</title>
<path fill="none" stroke="#52667a" d="M1025.14,-112.94C1073.39,-116.43 1129.96,-120.52 1178.28,-124.02"/>
<polygon fill="#52667a" stroke="#52667a" points="1178.29,-126.65 1185.96,-124.58 1178.67,-121.42 1178.29,-126.65"/>
<text text-anchor="middle" x="1106" y="-126.2" font-family="DejaVu Sans" font-size="11.00">knowledge_context.v1</text>
</g>
<!-- context -->
<g id="node6" class="node">
<title>context</title>
<path fill="#eef4ff" stroke="#315c9b" d="M1370.5,-86C1370.5,-86 1208.5,-86 1208.5,-86 1202.5,-86 1196.5,-80 1196.5,-74 1196.5,-74 1196.5,-56 1196.5,-56 1196.5,-50 1202.5,-44 1208.5,-44 1208.5,-44 1370.5,-44 1370.5,-44 1376.5,-44 1382.5,-50 1382.5,-56 1382.5,-56 1382.5,-74 1382.5,-74 1382.5,-80 1376.5,-86 1370.5,-86"/>
<text text-anchor="middle" x="1289.5" y="-68.6" font-family="DejaVu Sans" font-size="13.00">Scoped notes + citations</text>
<text text-anchor="middle" x="1289.5" y="-54.6" font-family="DejaVu Sans" font-size="13.00">patterns / performance</text>
</g>
<!-- knowledge&#45;&gt;context -->
<g id="edge5" class="edge">
<title>knowledge&#45;&gt;context</title>
<path fill="none" stroke="#52667a" d="M1025.14,-93.24C1076.87,-87.7 1138.15,-81.12 1188.57,-75.72"/>
<polygon fill="#52667a" stroke="#52667a" points="1189.07,-78.3 1196.25,-74.89 1188.51,-73.08 1189.07,-78.3"/>
<text text-anchor="middle" x="1106" y="-93.2" font-family="DejaVu Sans" font-size="11.00">persist</text>
</g>
<!-- archive -->
<g id="node4" class="node">
<title>archive</title>
<path fill="#eef4ff" stroke="#315c9b" d="M205,-121C205,-121 12,-121 12,-121 6,-121 0,-115 0,-109 0,-109 0,-91 0,-91 0,-85 6,-79 12,-79 12,-79 205,-79 205,-79 211,-79 217,-85 217,-91 217,-91 217,-109 217,-109 217,-115 211,-121 205,-121"/>
<text text-anchor="middle" x="108.5" y="-103.6" font-family="DejaVu Sans" font-size="13.00">All terminal agent archives</text>
<text text-anchor="middle" x="108.5" y="-89.6" font-family="DejaVu Sans" font-size="13.00">completed / failed / cancelled</text>
</g>
<!-- md -->
<g id="node5" class="node">
<title>md</title>
<path fill="#e9f7ef" stroke="#2e7d59" d="M580,-121C580,-121 413,-121 413,-121 407,-121 401,-115 401,-109 401,-109 401,-91 401,-91 401,-85 407,-79 413,-79 413,-79 580,-79 580,-79 586,-79 592,-85 592,-91 592,-91 592,-109 592,-109 592,-115 586,-121 580,-121"/>
<text text-anchor="middle" x="496.5" y="-103.6" font-family="DejaVu Sans" font-size="13.00">Markdown observations</text>
<text text-anchor="middle" x="496.5" y="-89.6" font-family="DejaVu Sans" font-size="13.00">run / cycle / agent / event</text>
</g>
<!-- archive&#45;&gt;md -->
<g id="edge3" class="edge">
<title>archive&#45;&gt;md</title>
<path fill="none" stroke="#52667a" d="M217.02,-100C272.1,-100 338.81,-100 393.13,-100"/>
<polygon fill="#52667a" stroke="#52667a" points="393.21,-102.63 400.71,-100 393.21,-97.38 393.21,-102.63"/>
<text text-anchor="middle" x="298" y="-103.2" font-family="DejaVu Sans" font-size="11.00">deterministic intake</text>
</g>
<!-- md&#45;&gt;knowledge -->
<g id="edge4" class="edge">
<title>md&#45;&gt;knowledge</title>
<path fill="none" stroke="#52667a" d="M592.16,-101.14C652.64,-101.86 731.52,-102.81 795.99,-103.59"/>
<polygon fill="#52667a" stroke="#52667a" points="796.25,-106.22 803.78,-103.68 796.32,-100.97 796.25,-106.22"/>
<text text-anchor="middle" x="708.5" y="-106.2" font-family="DejaVu Sans" font-size="11.00">search / selected read</text>
</g>
<!-- evolution -->
<g id="node7" class="node">
<title>evolution</title>
<path fill="#fff1d6" stroke="#916100" d="M1704,-86C1704,-86 1541,-86 1541,-86 1535,-86 1529,-80 1529,-74 1529,-74 1529,-56 1529,-56 1529,-50 1535,-44 1541,-44 1541,-44 1704,-44 1704,-44 1710,-44 1716,-50 1716,-56 1716,-56 1716,-74 1716,-74 1716,-80 1710,-86 1704,-86"/>
<text text-anchor="middle" x="1622.5" y="-68.6" font-family="DejaVu Sans" font-size="13.00">Evolution evidence packs</text>
<text text-anchor="middle" x="1622.5" y="-54.6" font-family="DejaVu Sans" font-size="13.00">operator review required</text>
</g>
<!-- context&#45;&gt;evolution -->
<g id="edge6" class="edge">
<title>context&#45;&gt;evolution</title>
<path fill="none" stroke="#52667a" stroke-dasharray="5,2" d="M1382.7,-65C1425.83,-65 1477.28,-65 1521.36,-65"/>
<polygon fill="#52667a" stroke="#52667a" points="1521.43,-67.63 1528.93,-65 1521.43,-62.38 1521.43,-67.63"/>
<text text-anchor="middle" x="1461" y="-68.2" font-family="DejaVu Sans" font-size="11.00">recommendations</text>
</g>
<!-- inbox -->
<g id="node8" class="node">
<title>inbox</title>
<path fill="#eef4ff" stroke="#315c9b" d="M184,-46C184,-46 33,-46 33,-46 27,-46 21,-40 21,-34 21,-34 21,-16 21,-16 21,-10 27,-4 33,-4 33,-4 184,-4 184,-4 190,-4 196,-10 196,-16 196,-16 196,-34 196,-34 196,-40 190,-46 184,-46"/>
<text text-anchor="middle" x="108.5" y="-28.6" font-family="DejaVu Sans" font-size="13.00">Source inbox</text>
<text text-anchor="middle" x="108.5" y="-14.6" font-family="DejaVu Sans" font-size="13.00">stable content changes</text>
</g>
<!-- sources -->
<g id="node9" class="node">
<title>sources</title>
<path fill="#e9f7ef" stroke="#2e7d59" d="M602,-46C602,-46 391,-46 391,-46 385,-46 379,-40 379,-34 379,-34 379,-16 379,-16 379,-10 385,-4 391,-4 391,-4 602,-4 602,-4 608,-4 614,-10 614,-16 614,-16 614,-34 614,-34 614,-40 608,-46 602,-46"/>
<text text-anchor="middle" x="496.5" y="-28.6" font-family="DejaVu Sans" font-size="13.00">Background source curation</text>
<text text-anchor="middle" x="496.5" y="-14.6" font-family="DejaVu Sans" font-size="13.00">LLM tools / preserved source MD</text>
</g>
<!-- inbox&#45;&gt;sources -->
<g id="edge7" class="edge">
<title>inbox&#45;&gt;sources</title>
<path fill="none" stroke="#52667a" d="M196.13,-25C247.71,-25 314.04,-25 371.15,-25"/>
<polygon fill="#52667a" stroke="#52667a" points="371.29,-27.63 378.79,-25 371.29,-22.38 371.29,-27.63"/>
<text text-anchor="middle" x="298" y="-28.2" font-family="DejaVu Sans" font-size="11.00">separate opt&#45;in worker</text>
</g>
<!-- sources&#45;&gt;knowledge -->
<g id="edge8" class="edge">
<title>sources&#45;&gt;knowledge</title>
<path fill="none" stroke="#52667a" d="M606.8,-46.02C665.21,-57.25 737.13,-71.08 796.64,-82.53"/>
<polygon fill="#52667a" stroke="#52667a" points="796.35,-85.14 804.21,-83.98 797.34,-79.99 796.35,-85.14"/>
<text text-anchor="middle" x="708.5" y="-82.2" font-family="DejaVu Sans" font-size="11.00">scoped references</text>
</g>
<!-- equipment -->
<g id="node10" class="node">
<title>equipment</title>
<path fill="#eef4ff" stroke="#315c9b" d="M1014,-42C1014,-42 815,-42 815,-42 809,-42 803,-36 803,-30 803,-30 803,-12 803,-12 803,-6 809,0 815,0 815,0 1014,0 1014,0 1020,0 1026,-6 1026,-12 1026,-12 1026,-30 1026,-30 1026,-36 1020,-42 1014,-42"/>
<text text-anchor="middle" x="914.5" y="-24.6" font-family="DejaVu Sans" font-size="13.00">Equipment decision layer</text>
<text text-anchor="middle" x="914.5" y="-10.6" font-family="DejaVu Sans" font-size="13.00">unchanged workflow proposals</text>
</g>
<!-- sources&#45;&gt;equipment -->
<g id="edge9" class="edge">
<title>sources&#45;&gt;equipment</title>
<path fill="none" stroke="#52667a" d="M614.14,-20.4C620.18,-20.24 626.16,-20.11 632,-20 699.99,-18.74 717,-19.74 785,-20 788.35,-20.01 791.76,-20.03 795.19,-20.04"/>
<polygon fill="#52667a" stroke="#52667a" points="795.24,-22.67 802.75,-20.08 795.27,-17.42 795.24,-22.67"/>
<text text-anchor="middle" x="708.5" y="-23.2" font-family="DejaVu Sans" font-size="11.00">read&#45;only context</text>
</g>
</g>
</svg>
