<?xml version="1.0" encoding="UTF-8" standalone="no"?>
<!DOCTYPE svg PUBLIC "-//W3C//DTD SVG 1.1//EN"
 "http://www.w3.org/Graphics/SVG/1.1/DTD/svg11.dtd">
<!-- Generated by graphviz version 2.43.0 (0)
 -->
<!-- Title: orchestrator_closed_loop_handoffs Pages: 1 -->
<svg width="980pt" height="457pt"
 viewBox="0.00 0.00 980.00 457.18" xmlns="http://www.w3.org/2000/svg" xmlns:xlink="http://www.w3.org/1999/xlink">
<g id="graph0" class="graph" transform="scale(1 1) rotate(0) translate(18 439.18)">
<title>orchestrator_closed_loop_handoffs</title>
<polygon fill="#f8fafc" stroke="transparent" points="-18,18 -18,-439.18 962,-439.18 962,18 -18,18"/>
<text text-anchor="middle" x="472" y="-402.78" font-family="DejaVu Sans" font-size="18.00">Orchestrator closed&#45;loop position and handoffs</text>
<!-- operator -->
<g id="node1" class="node">
<title>operator</title>
<path fill="#eef4ff" stroke="#315c9b" d="M111,-304.18C111,-304.18 40,-304.18 40,-304.18 34,-304.18 28,-298.18 28,-292.18 28,-292.18 28,-280.18 28,-280.18 28,-274.18 34,-268.18 40,-268.18 40,-268.18 111,-268.18 111,-268.18 117,-268.18 123,-274.18 123,-280.18 123,-280.18 123,-292.18 123,-292.18 123,-298.18 117,-304.18 111,-304.18"/>
<text text-anchor="middle" x="75.5" y="-288.98" font-family="DejaVu Sans" font-size="9.00">Operator intent +</text>
<text text-anchor="middle" x="75.5" y="-278.98" font-family="DejaVu Sans" font-size="9.00">accepted inputs</text>
</g>
<!-- orchestrator -->
<g id="node5" class="node">
<title>orchestrator</title>
<path fill="#eef4ff" stroke="#315c9b" stroke-width="2.2" d="M429,-244.18C429,-244.18 318,-244.18 318,-244.18 312,-244.18 306,-238.18 306,-232.18 306,-232.18 306,-220.18 306,-220.18 306,-214.18 312,-208.18 318,-208.18 318,-208.18 429,-208.18 429,-208.18 435,-208.18 441,-214.18 441,-220.18 441,-220.18 441,-232.18 441,-232.18 441,-238.18 435,-244.18 429,-244.18"/>
<text text-anchor="middle" x="373.5" y="-228.98" font-family="DejaVu Sans" font-size="9.00">ORCHESTRATOR</text>
<text text-anchor="middle" x="373.5" y="-218.98" font-family="DejaVu Sans" font-size="9.00">mission · context · handoff</text>
</g>
<!-- operator&#45;&gt;orchestrator -->
<g id="edge1" class="edge">
<title>operator&#45;&gt;orchestrator</title>
<path fill="none" stroke="#52667a" d="M123.08,-276.73C170.23,-267.18 243.84,-252.25 298.9,-241.1"/>
<polygon fill="#52667a" stroke="#52667a" points="299.48,-243.48 305.85,-239.68 298.51,-238.67 299.48,-243.48"/>
<text text-anchor="middle" x="228.5" y="-268.78" font-family="DejaVu Sans" font-size="8.00">operator_intent.v1</text>
</g>
<!-- setup -->
<g id="node2" class="node">
<title>setup</title>
<polygon fill="#e9f7ef" stroke="#2e7d59" points="145,-386.18 0,-386.18 0,-350.18 151,-350.18 151,-380.18 145,-386.18"/>
<polyline fill="none" stroke="#2e7d59" points="145,-386.18 145,-380.18 "/>
<polyline fill="none" stroke="#2e7d59" points="151,-380.18 145,-380.18 "/>
<text text-anchor="middle" x="75.5" y="-370.98" font-family="DejaVu Sans" font-size="9.00">Canonical Experimental Setup</text>
<text text-anchor="middle" x="75.5" y="-360.98" font-family="DejaVu Sans" font-size="9.00">blocks + revision</text>
</g>
<!-- setup&#45;&gt;orchestrator -->
<g id="edge2" class="edge">
<title>setup&#45;&gt;orchestrator</title>
<path fill="none" stroke="#52667a" d="M126.7,-350.13C169.84,-333.97 233.25,-308.64 286,-281.18 304.67,-271.45 324.56,-258.97 340.55,-248.36"/>
<polygon fill="#52667a" stroke="#52667a" points="342.25,-250.17 346.7,-244.24 339.52,-246.1 342.25,-250.17"/>
<text text-anchor="middle" x="228.5" y="-333.78" font-family="DejaVu Sans" font-size="8.00">scoped proposal / readback</text>
</g>
<!-- evidence -->
<g id="node11" class="node">
<title>evidence</title>
<polygon fill="#e9f7ef" stroke="#2e7d59" points="938,-333.18 795,-333.18 795,-297.18 944,-297.18 944,-327.18 938,-333.18"/>
<polyline fill="none" stroke="#2e7d59" points="938,-333.18 938,-327.18 "/>
<polyline fill="none" stroke="#2e7d59" points="944,-327.18 938,-327.18 "/>
<text text-anchor="middle" x="869.5" y="-317.98" font-family="DejaVu Sans" font-size="9.00">Transcript · handoff · decision</text>
<text text-anchor="middle" x="869.5" y="-307.98" font-family="DejaVu Sans" font-size="9.00">checkpoint · event</text>
</g>
<!-- setup&#45;&gt;evidence -->
<g id="edge13" class="edge">
<title>setup&#45;&gt;evidence</title>
<path fill="none" stroke="#2e7d59" d="M151.08,-375.04C271.17,-384.46 514.44,-396.77 717,-364.18 751.62,-358.61 789.12,-346.53 818.15,-335.76"/>
<polygon fill="#2e7d59" stroke="#2e7d59" points="819.27,-337.95 824.96,-333.2 817.55,-333.37 819.27,-337.95"/>
<text text-anchor="middle" x="523" y="-386.78" font-family="DejaVu Sans" font-size="8.00">history + receipt</text>
</g>
<!-- prior -->
<g id="node3" class="node">
<title>prior</title>
<polygon fill="#e9f7ef" stroke="#2e7d59" points="127,-184.18 18,-184.18 18,-148.18 133,-148.18 133,-178.18 127,-184.18"/>
<polyline fill="none" stroke="#2e7d59" points="127,-184.18 127,-178.18 "/>
<polyline fill="none" stroke="#2e7d59" points="133,-178.18 127,-178.18 "/>
<text text-anchor="middle" x="75.5" y="-168.98" font-family="DejaVu Sans" font-size="9.00">Prior Knowledge / BO /</text>
<text text-anchor="middle" x="75.5" y="-158.98" font-family="DejaVu Sans" font-size="9.00">failure context</text>
</g>
<!-- prior&#45;&gt;orchestrator -->
<g id="edge3" class="edge">
<title>prior&#45;&gt;orchestrator</title>
<path fill="none" stroke="#52667a" d="M133.22,-177.67C180.28,-187.21 247.53,-200.84 298.76,-211.23"/>
<polygon fill="#52667a" stroke="#52667a" points="298.53,-213.68 305.88,-212.67 299.51,-208.88 298.53,-213.68"/>
<text text-anchor="middle" x="228.5" y="-210.78" font-family="DejaVu Sans" font-size="8.00">accepted prior state</text>
</g>
<!-- checkpoint -->
<g id="node4" class="node">
<title>checkpoint</title>
<polygon fill="#e9f7ef" stroke="#2e7d59" points="117.5,-244.18 27.5,-244.18 27.5,-208.18 123.5,-208.18 123.5,-238.18 117.5,-244.18"/>
<polyline fill="none" stroke="#2e7d59" points="117.5,-244.18 117.5,-238.18 "/>
<polyline fill="none" stroke="#2e7d59" points="123.5,-238.18 117.5,-238.18 "/>
<text text-anchor="middle" x="75.5" y="-228.98" font-family="DejaVu Sans" font-size="9.00">Run checkpoint +</text>
<text text-anchor="middle" x="75.5" y="-218.98" font-family="DejaVu Sans" font-size="9.00">current stage</text>
</g>
<!-- checkpoint&#45;&gt;orchestrator -->
<g id="edge4" class="edge">
<title>checkpoint&#45;&gt;orchestrator</title>
<path fill="none" stroke="#52667a" d="M123.73,-226.18C170.83,-226.18 243.85,-226.18 298.62,-226.18"/>
<polygon fill="#52667a" stroke="#52667a" points="298.88,-228.63 305.88,-226.18 298.88,-223.73 298.88,-228.63"/>
<text text-anchor="middle" x="228.5" y="-228.78" font-family="DejaVu Sans" font-size="8.00">resume context</text>
</g>
<!-- agent -->
<g id="node6" class="node">
<title>agent</title>
<path fill="#eef4ff" stroke="#315c9b" d="M690.5,-352.18C690.5,-352.18 631.5,-352.18 631.5,-352.18 625.5,-352.18 619.5,-346.18 619.5,-340.18 619.5,-340.18 619.5,-328.18 619.5,-328.18 619.5,-322.18 625.5,-316.18 631.5,-316.18 631.5,-316.18 690.5,-316.18 690.5,-316.18 696.5,-316.18 702.5,-322.18 702.5,-328.18 702.5,-328.18 702.5,-340.18 702.5,-340.18 702.5,-346.18 696.5,-352.18 690.5,-352.18"/>
<text text-anchor="middle" x="661" y="-336.98" font-family="DejaVu Sans" font-size="9.00">Graph&#45;selected</text>
<text text-anchor="middle" x="661" y="-326.98" font-family="DejaVu Sans" font-size="9.00">domain agent</text>
</g>
<!-- orchestrator&#45;&gt;agent -->
<g id="edge5" class="edge">
<title>orchestrator&#45;&gt;agent</title>
<path fill="none" stroke="#52667a" d="M409.25,-244.36C424.81,-252.05 443.55,-260.7 461,-267.18 514.58,-287.04 531.15,-282.06 585,-301.18 595.01,-304.73 605.56,-309.01 615.48,-313.3"/>
<polygon fill="#52667a" stroke="#52667a" points="614.5,-315.55 621.9,-316.12 616.47,-311.06 614.5,-315.55"/>
<text text-anchor="middle" x="523" y="-312.78" font-family="DejaVu Sans" font-size="8.00">mission_contract.v1</text>
<text text-anchor="middle" x="523" y="-303.78" font-family="DejaVu Sans" font-size="8.00">handoff_packet.v1</text>
</g>
<!-- guardian -->
<g id="node7" class="node">
<title>guardian</title>
<path fill="#fff1d6" stroke="#b26a00" d="M650.42,-286.51C650.42,-286.51 615.58,-267.84 615.58,-267.84 610.29,-265.01 610.29,-259.34 615.58,-256.51 615.58,-256.51 650.42,-237.84 650.42,-237.84 655.71,-235.01 666.29,-235.01 671.58,-237.84 671.58,-237.84 706.42,-256.51 706.42,-256.51 711.71,-259.34 711.71,-265.01 706.42,-267.84 706.42,-267.84 671.58,-286.51 671.58,-286.51 666.29,-289.34 655.71,-289.34 650.42,-286.51"/>
<text text-anchor="middle" x="661" y="-264.98" font-family="DejaVu Sans" font-size="9.00">Guardian</text>
<text text-anchor="middle" x="661" y="-254.98" font-family="DejaVu Sans" font-size="9.00">decision</text>
</g>
<!-- orchestrator&#45;&gt;guardian -->
<g id="edge7" class="edge">
<title>orchestrator&#45;&gt;guardian</title>
<path fill="none" stroke="#52667a" d="M441.21,-219.25C483.02,-216.68 537.75,-216.58 585,-227.18 599.57,-230.44 614.66,-236.82 627.46,-243.25"/>
<polygon fill="#52667a" stroke="#52667a" points="626.58,-245.56 633.92,-246.6 628.84,-241.21 626.58,-245.56"/>
<text text-anchor="middle" x="523" y="-229.78" font-family="DejaVu Sans" font-size="8.00">cycle state + decision register</text>
</g>
<!-- design -->
<g id="node8" class="node">
<title>design</title>
<path fill="#eef4ff" stroke="#315c9b" d="M683.5,-208.18C683.5,-208.18 638.5,-208.18 638.5,-208.18 632.5,-208.18 626.5,-202.18 626.5,-196.18 626.5,-196.18 626.5,-184.18 626.5,-184.18 626.5,-178.18 632.5,-172.18 638.5,-172.18 638.5,-172.18 683.5,-172.18 683.5,-172.18 689.5,-172.18 695.5,-178.18 695.5,-184.18 695.5,-184.18 695.5,-196.18 695.5,-196.18 695.5,-202.18 689.5,-208.18 683.5,-208.18"/>
<text text-anchor="middle" x="661" y="-192.98" font-family="DejaVu Sans" font-size="9.00">Next Design</text>
<text text-anchor="middle" x="661" y="-182.98" font-family="DejaVu Sans" font-size="9.00">cycle</text>
</g>
<!-- orchestrator&#45;&gt;design -->
<g id="edge9" class="edge">
<title>orchestrator&#45;&gt;design</title>
<path fill="none" stroke="#52667a" d="M433.22,-208.1C442.45,-205.78 451.93,-203.69 461,-202.18 515.27,-193.12 578.87,-190.68 619.29,-190.14"/>
<polygon fill="#52667a" stroke="#52667a" points="619.34,-192.59 626.31,-190.06 619.28,-187.69 619.34,-192.59"/>
<text text-anchor="middle" x="523" y="-204.78" font-family="DejaVu Sans" font-size="8.00">continue</text>
</g>
<!-- review -->
<g id="node9" class="node">
<title>review</title>
<path fill="#ffe9e7" stroke="#a33a32" stroke-width="2" d="M695.5,-148.18C695.5,-148.18 626.5,-148.18 626.5,-148.18 620.5,-148.18 614.5,-142.18 614.5,-136.18 614.5,-136.18 614.5,-124.18 614.5,-124.18 614.5,-118.18 620.5,-112.18 626.5,-112.18 626.5,-112.18 695.5,-112.18 695.5,-112.18 701.5,-112.18 707.5,-118.18 707.5,-124.18 707.5,-124.18 707.5,-136.18 707.5,-136.18 707.5,-142.18 701.5,-148.18 695.5,-148.18"/>
<text text-anchor="middle" x="661" y="-132.98" font-family="DejaVu Sans" font-size="9.00">Operator review /</text>
<text text-anchor="middle" x="661" y="-122.98" font-family="DejaVu Sans" font-size="9.00">missing input</text>
</g>
<!-- orchestrator&#45;&gt;review -->
<g id="edge10" class="edge">
<title>orchestrator&#45;&gt;review</title>
<path fill="none" stroke="#52667a" d="M400.29,-208.09C416.94,-197.15 439.45,-183.72 461,-175.18 508.78,-156.23 566.33,-144.3 607.22,-137.53"/>
<polygon fill="#52667a" stroke="#52667a" points="607.63,-139.94 614.15,-136.4 606.85,-135.1 607.63,-139.94"/>
<text text-anchor="middle" x="523" y="-177.78" font-family="DejaVu Sans" font-size="8.00">ask / review</text>
</g>
<!-- terminal -->
<g id="node10" class="node">
<title>terminal</title>
<path fill="#ffe9e7" stroke="#a33a32" stroke-width="2" d="M695,-88.18C695,-88.18 627,-88.18 627,-88.18 621,-88.18 615,-82.18 615,-76.18 615,-76.18 615,-64.18 615,-64.18 615,-58.18 621,-52.18 627,-52.18 627,-52.18 695,-52.18 695,-52.18 701,-52.18 707,-58.18 707,-64.18 707,-64.18 707,-76.18 707,-76.18 707,-82.18 701,-88.18 695,-88.18"/>
<text text-anchor="middle" x="661" y="-72.98" font-family="DejaVu Sans" font-size="9.00">Complete / stop /</text>
<text text-anchor="middle" x="661" y="-62.98" font-family="DejaVu Sans" font-size="9.00">error</text>
</g>
<!-- orchestrator&#45;&gt;terminal -->
<g id="edge11" class="edge">
<title>orchestrator&#45;&gt;terminal</title>
<path fill="none" stroke="#52667a" d="M385.62,-207.99C400.21,-185.68 427.86,-148.22 461,-127.18 505.88,-98.67 565.35,-84.08 607.55,-76.83"/>
<polygon fill="#52667a" stroke="#52667a" points="608.19,-79.21 614.7,-75.65 607.39,-74.38 608.19,-79.21"/>
<text text-anchor="middle" x="523" y="-129.78" font-family="DejaVu Sans" font-size="8.00">stop / complete / error</text>
</g>
<!-- orchestrator&#45;&gt;evidence -->
<g id="edge12" class="edge">
<title>orchestrator&#45;&gt;evidence</title>
<path fill="none" stroke="#2e7d59" d="M380.06,-208.03C390.64,-176.53 416.65,-111.69 461,-76.18 551.17,-3.96 617.94,28.26 717,-31.18 813.5,-89.07 851.93,-231.63 863.93,-289.82"/>
<polygon fill="#2e7d59" stroke="#2e7d59" points="861.56,-290.43 865.33,-296.81 866.36,-289.47 861.56,-290.43"/>
<text text-anchor="middle" x="661" y="-33.78" font-family="DejaVu Sans" font-size="8.00">evidence</text>
</g>
<!-- agent&#45;&gt;orchestrator -->
<g id="edge6" class="edge">
<title>agent&#45;&gt;orchestrator</title>
<path fill="none" stroke="#52667a" d="M619.26,-340.08C577.39,-344.26 511.38,-345.43 461,-321.18 429.22,-305.87 403.7,-273.23 388.83,-250.5"/>
<polygon fill="#52667a" stroke="#52667a" points="390.75,-248.96 384.92,-244.38 386.62,-251.6 390.75,-248.96"/>
<text text-anchor="middle" x="523" y="-344.78" font-family="DejaVu Sans" font-size="8.00">result · concern · evidence</text>
</g>
<!-- agent&#45;&gt;evidence -->
<g id="edge14" class="edge">
<title>agent&#45;&gt;evidence</title>
<path fill="none" stroke="#2e7d59" d="M702.8,-330.42C726.96,-328.2 758.43,-325.3 787.45,-322.63"/>
<polygon fill="#2e7d59" stroke="#2e7d59" points="788.02,-325.04 794.77,-321.96 787.58,-320.16 788.02,-325.04"/>
<text text-anchor="middle" x="756" y="-328.78" font-family="DejaVu Sans" font-size="8.00">evidence</text>
</g>
<!-- guardian&#45;&gt;orchestrator -->
<g id="edge8" class="edge">
<title>guardian&#45;&gt;orchestrator</title>
<path fill="none" stroke="#52667a" d="M615.15,-256.52C570.41,-250.88 500.92,-242.12 448.09,-235.45"/>
<polygon fill="#52667a" stroke="#52667a" points="448.33,-233.02 441.08,-234.57 447.72,-237.88 448.33,-233.02"/>
<text text-anchor="middle" x="523" y="-254.78" font-family="DejaVu Sans" font-size="8.00">continue / review / stop / error</text>
</g>
<!-- guardian&#45;&gt;evidence -->
<g id="edge15" class="edge">
<title>guardian&#45;&gt;evidence</title>
<path fill="none" stroke="#2e7d59" d="M699.4,-271.77C724.9,-278.32 759.6,-287.22 790.93,-295.27"/>
<polygon fill="#2e7d59" stroke="#2e7d59" points="790.58,-297.71 797.97,-297.07 791.8,-292.96 790.58,-297.71"/>
<text text-anchor="middle" x="756" y="-292.78" font-family="DejaVu Sans" font-size="8.00">evidence</text>
</g>
</g>
</svg>
