<?xml version="1.0" encoding="UTF-8" standalone="no"?>
<!DOCTYPE svg PUBLIC "-//W3C//DTD SVG 1.1//EN"
 "http://www.w3.org/Graphics/SVG/1.1/DTD/svg11.dtd">
<!-- Generated by graphviz version 2.43.0 (0)
 -->
<!-- Title: specimen_closed_loop_handoffs Pages: 1 -->
<svg width="1175pt" height="197pt"
 viewBox="0.00 0.00 1174.71 197.00" xmlns="http://www.w3.org/2000/svg" xmlns:xlink="http://www.w3.org/1999/xlink">
<g id="graph0" class="graph" transform="scale(1 1) rotate(0) translate(18 179)">
<title>specimen_closed_loop_handoffs</title>
<text text-anchor="middle" x="569.35" y="-142.6" font-family="DejaVu Sans" font-size="18.00">Specimen closed&#45;loop position and handoffs</text>
<!-- design -->
<g id="node1" class="node">
<title>design</title>
<path fill="#eef4ff" stroke="#315c9b" d="M80,-106C80,-106 12,-106 12,-106 6,-106 0,-100 0,-94 0,-94 0,-82 0,-82 0,-76 6,-70 12,-70 12,-70 80,-70 80,-70 86,-70 92,-76 92,-82 92,-82 92,-94 92,-94 92,-100 86,-106 80,-106"/>
<text text-anchor="middle" x="46" y="-90.8" font-family="DejaVu Sans" font-size="9.00">Design</text>
<text text-anchor="middle" x="46" y="-80.8" font-family="DejaVu Sans" font-size="9.00">experiment_spec</text>
</g>
<!-- specimen -->
<g id="node3" class="node">
<title>specimen</title>
<path fill="#eef4ff" stroke="#315c9b" stroke-width="2.2" d="M338,-76C338,-76 216,-76 216,-76 210,-76 204,-70 204,-64 204,-64 204,-52 204,-52 204,-46 210,-40 216,-40 216,-40 338,-40 338,-40 344,-40 350,-46 350,-52 350,-52 350,-64 350,-64 350,-70 344,-76 338,-76"/>
<text text-anchor="middle" x="277" y="-60.8" font-family="DejaVu Sans" font-size="9.00">SPECIMEN MAKING</text>
<text text-anchor="middle" x="277" y="-50.8" font-family="DejaVu Sans" font-size="9.00">manufacturing digital thread</text>
</g>
<!-- design&#45;&gt;specimen -->
<g id="edge1" class="edge">
<title>design&#45;&gt;specimen</title>
<path fill="none" stroke="#52667a" d="M92.24,-82.07C121.94,-78.18 161.58,-72.99 196.45,-68.42"/>
<polygon fill="#52667a" stroke="#52667a" points="197.19,-70.8 203.81,-67.46 196.55,-65.94 197.19,-70.8"/>
<text text-anchor="middle" x="148" y="-81.6" font-family="DejaVu Sans" font-size="8.00">fabrication intent</text>
</g>
<!-- printer -->
<g id="node2" class="node">
<title>printer</title>
<polygon fill="#f2ecfa" stroke="#6b4c9a" points="89.5,-46 2.5,-46 2.5,-42 -1.5,-42 -1.5,-38 2.5,-38 2.5,-18 -1.5,-18 -1.5,-14 2.5,-14 2.5,-10 89.5,-10 89.5,-46"/>
<polyline fill="none" stroke="#6b4c9a" points="2.5,-42 6.5,-42 6.5,-38 2.5,-38 "/>
<polyline fill="none" stroke="#6b4c9a" points="2.5,-18 6.5,-18 6.5,-14 2.5,-14 "/>
<text text-anchor="middle" x="46" y="-30.8" font-family="DejaVu Sans" font-size="9.00">Printer profile +</text>
<text text-anchor="middle" x="46" y="-20.8" font-family="DejaVu Sans" font-size="9.00">provider status</text>
</g>
<!-- printer&#45;&gt;specimen -->
<g id="edge2" class="edge">
<title>printer&#45;&gt;specimen</title>
<path fill="none" stroke="#52667a" d="M89.54,-33.57C119.61,-37.51 160.82,-42.91 196.85,-47.63"/>
<polygon fill="#52667a" stroke="#52667a" points="196.73,-50.09 203.98,-48.57 197.36,-45.23 196.73,-50.09"/>
<text text-anchor="middle" x="148" y="-47.6" font-family="DejaVu Sans" font-size="8.00">selected provider</text>
</g>
<!-- gate -->
<g id="node4" class="node">
<title>gate</title>
<path fill="#fff1d6" stroke="#b26a00" d="M557.01,-104.04C557.01,-104.04 471.98,-89.96 471.98,-89.96 466.07,-88.98 466.07,-87.02 471.98,-86.04 471.98,-86.04 557.01,-71.96 557.01,-71.96 562.93,-70.98 574.77,-70.98 580.69,-71.96 580.69,-71.96 665.72,-86.04 665.72,-86.04 671.64,-87.02 671.64,-88.98 665.72,-89.96 665.72,-89.96 580.69,-104.04 580.69,-104.04 574.77,-105.02 562.93,-105.02 557.01,-104.04"/>
<text text-anchor="middle" x="568.85" y="-85.8" font-family="DejaVu Sans" font-size="9.00">Verified specimen ready?</text>
</g>
<!-- specimen&#45;&gt;gate -->
<g id="edge3" class="edge">
<title>specimen&#45;&gt;gate</title>
<path fill="none" stroke="#52667a" d="M350.02,-65.45C393.95,-70 449.95,-75.8 494.18,-80.37"/>
<polygon fill="#52667a" stroke="#52667a" points="493.96,-82.81 501.17,-81.1 494.46,-77.94 493.96,-82.81"/>
<text text-anchor="middle" x="405" y="-75.6" font-family="DejaVu Sans" font-size="8.00">fabrication result</text>
</g>
<!-- evidence -->
<g id="node8" class="node">
<title>evidence</title>
<polygon fill="#e9f7ef" stroke="#2e7d59" points="646.85,-46 484.85,-46 484.85,-10 652.85,-10 652.85,-40 646.85,-46"/>
<polyline fill="none" stroke="#2e7d59" points="646.85,-46 646.85,-40 "/>
<polyline fill="none" stroke="#2e7d59" points="652.85,-40 646.85,-40 "/>
<text text-anchor="middle" x="568.85" y="-30.8" font-family="DejaVu Sans" font-size="9.00">STL · G&#45;code · hashes · start proof</text>
<text text-anchor="middle" x="568.85" y="-20.8" font-family="DejaVu Sans" font-size="9.00">monitoring · bed&#45;clear · handoff</text>
</g>
<!-- specimen&#45;&gt;evidence -->
<g id="edge7" class="edge">
<title>specimen&#45;&gt;evidence</title>
<path fill="none" stroke="#2e7d59" d="M350.02,-50.55C388.62,-46.55 436.54,-41.59 477.6,-37.34"/>
<polygon fill="#2e7d59" stroke="#2e7d59" points="477.94,-39.77 484.65,-36.61 477.43,-34.9 477.94,-39.77"/>
<text text-anchor="middle" x="405" y="-50.6" font-family="DejaVu Sans" font-size="8.00">evidence</text>
</g>
<!-- vision -->
<g id="node5" class="node">
<title>vision</title>
<path fill="#eef4ff" stroke="#315c9b" d="M926.71,-66C926.71,-66 803.71,-66 803.71,-66 797.71,-66 791.71,-60 791.71,-54 791.71,-54 791.71,-42 791.71,-42 791.71,-36 797.71,-30 803.71,-30 803.71,-30 926.71,-30 926.71,-30 932.71,-30 938.71,-36 938.71,-42 938.71,-42 938.71,-54 938.71,-54 938.71,-60 932.71,-66 926.71,-66"/>
<text text-anchor="middle" x="865.21" y="-50.8" font-family="DejaVu Sans" font-size="9.00">Vision</text>
<text text-anchor="middle" x="865.21" y="-40.8" font-family="DejaVu Sans" font-size="9.00">ejection / location verification</text>
</g>
<!-- gate&#45;&gt;vision -->
<g id="edge4" class="edge">
<title>gate&#45;&gt;vision</title>
<path fill="none" stroke="#52667a" d="M629.07,-79.95C673.71,-73.89 735.41,-65.5 784.41,-58.84"/>
<polygon fill="#52667a" stroke="#52667a" points="784.93,-61.25 791.54,-57.87 784.27,-56.39 784.93,-61.25"/>
<text text-anchor="middle" x="734.71" y="-72.6" font-family="DejaVu Sans" font-size="8.00">verify</text>
</g>
<!-- review -->
<g id="node7" class="node">
<title>review</title>
<path fill="#ffe9e7" stroke="#a33a32" stroke-width="2" d="M908.21,-133C908.21,-133 822.21,-133 822.21,-133 816.21,-133 810.21,-127 810.21,-121 810.21,-121 810.21,-109 810.21,-109 810.21,-103 816.21,-97 822.21,-97 822.21,-97 908.21,-97 908.21,-97 914.21,-97 920.21,-103 920.21,-109 920.21,-109 920.21,-121 920.21,-121 920.21,-127 914.21,-133 908.21,-133"/>
<text text-anchor="middle" x="865.21" y="-112.8" font-family="DejaVu Sans" font-size="9.00">Repair / review / stop</text>
</g>
<!-- gate&#45;&gt;review -->
<g id="edge6" class="edge">
<title>gate&#45;&gt;review</title>
<path fill="none" stroke="#52667a" d="M639.24,-94.36C688.87,-98.92 755.07,-104.99 802.79,-109.37"/>
<polygon fill="#52667a" stroke="#52667a" points="802.79,-111.83 809.99,-110.03 803.24,-106.95 802.79,-111.83"/>
<text text-anchor="middle" x="734.71" y="-108.6" font-family="DejaVu Sans" font-size="8.00">invalid / uncertain</text>
</g>
<!-- manipulation -->
<g id="node6" class="node">
<title>manipulation</title>
<path fill="#eef4ff" stroke="#315c9b" d="M1126.71,-36C1126.71,-36 1054.71,-36 1054.71,-36 1048.71,-36 1042.71,-30 1042.71,-24 1042.71,-24 1042.71,-12 1042.71,-12 1042.71,-6 1048.71,0 1054.71,0 1054.71,0 1126.71,0 1126.71,0 1132.71,0 1138.71,-6 1138.71,-12 1138.71,-12 1138.71,-24 1138.71,-24 1138.71,-30 1132.71,-36 1126.71,-36"/>
<text text-anchor="middle" x="1090.71" y="-20.8" font-family="DejaVu Sans" font-size="9.00">Manipulation</text>
<text text-anchor="middle" x="1090.71" y="-10.8" font-family="DejaVu Sans" font-size="9.00">transfer readiness</text>
</g>
<!-- vision&#45;&gt;manipulation -->
<g id="edge5" class="edge">
<title>vision&#45;&gt;manipulation</title>
<path fill="none" stroke="#52667a" d="M938.77,-38.26C970.15,-34.05 1006.24,-29.2 1035.26,-25.31"/>
<polygon fill="#52667a" stroke="#52667a" points="1035.87,-27.7 1042.48,-24.34 1035.21,-22.84 1035.87,-27.7"/>
<text text-anchor="middle" x="990.71" y="-36.6" font-family="DejaVu Sans" font-size="8.00">fresh readiness</text>
</g>
<!-- evidence&#45;&gt;vision -->
<g id="edge8" class="edge">
<title>evidence&#45;&gt;vision</title>
<path fill="none" stroke="#2e7d59" d="M652.87,-32.43C689.34,-34.51 732.67,-37.15 771.71,-40 775.83,-40.3 780.05,-40.62 784.31,-40.95"/>
<polygon fill="#2e7d59" stroke="#2e7d59" points="784.34,-43.41 791.51,-41.53 784.73,-38.53 784.34,-43.41"/>
<text text-anchor="middle" x="734.71" y="-42.6" font-family="DejaVu Sans" font-size="8.00">identity + proof</text>
</g>
<!-- evidence&#45;&gt;manipulation -->
<g id="edge9" class="edge">
<title>evidence&#45;&gt;manipulation</title>
<path fill="none" stroke="#2e7d59" d="M652.97,-19.19C694.58,-15.21 745.75,-10.96 791.71,-9 856.98,-6.21 873.4,-7.06 938.71,-9 970.77,-9.95 1006.61,-12.05 1035.33,-13.97"/>
<polygon fill="#2e7d59" stroke="#2e7d59" points="1035.32,-16.43 1042.47,-14.46 1035.65,-11.54 1035.32,-16.43"/>
<text text-anchor="middle" x="865.21" y="-11.6" font-family="DejaVu Sans" font-size="8.00">handoff evidence</text>
</g>
</g>
</svg>
