<?xml version="1.0" encoding="UTF-8" standalone="no"?>
<!DOCTYPE svg PUBLIC "-//W3C//DTD SVG 1.1//EN"
 "http://www.w3.org/Graphics/SVG/1.1/DTD/svg11.dtd">
<!-- Generated by graphviz version 2.43.0 (0)
 -->
<!-- Title: specimen_api_connection_architecture Pages: 1 -->
<svg width="595pt" height="762pt"
 viewBox="0.00 0.00 594.50 761.80" xmlns="http://www.w3.org/2000/svg" xmlns:xlink="http://www.w3.org/1999/xlink">
<g id="graph0" class="graph" transform="scale(1 1) rotate(0) translate(18 743.8)">
<title>specimen_api_connection_architecture</title>
<polygon fill="white" stroke="transparent" points="-18,18 -18,-743.8 576.5,-743.8 576.5,18 -18,18"/>
<text text-anchor="middle" x="279.25" y="-707.4" font-family="DejaVu Sans" font-size="18.00">Specimen API and connection architecture</text>
<!-- api -->
<g id="node1" class="node">
<title>api</title>
<path fill="#eef4ff" stroke="#315c9b" d="M403.5,-451.8C403.5,-451.8 313.5,-451.8 313.5,-451.8 307.5,-451.8 301.5,-445.8 301.5,-439.8 301.5,-439.8 301.5,-427.8 301.5,-427.8 301.5,-421.8 307.5,-415.8 313.5,-415.8 313.5,-415.8 403.5,-415.8 403.5,-415.8 409.5,-415.8 415.5,-421.8 415.5,-427.8 415.5,-427.8 415.5,-439.8 415.5,-439.8 415.5,-445.8 409.5,-451.8 403.5,-451.8"/>
<text text-anchor="middle" x="358.5" y="-440.66" font-family="DejaVu Sans" font-size="8.30">/api/printer/*</text>
<text text-anchor="middle" x="358.5" y="-431.66" font-family="DejaVu Sans" font-size="8.30">status · configure · slice</text>
<text text-anchor="middle" x="358.5" y="-422.66" font-family="DejaVu Sans" font-size="8.30">gate · publish · proof</text>
</g>
<!-- manager -->
<g id="node6" class="node">
<title>manager</title>
<polygon fill="#f2ecfa" stroke="#6b4c9a" points="428,-369.8 327,-369.8 327,-365.8 323,-365.8 323,-361.8 327,-361.8 327,-341.8 323,-341.8 323,-337.8 327,-337.8 327,-333.8 428,-333.8 428,-369.8"/>
<polyline fill="none" stroke="#6b4c9a" points="327,-365.8 331,-365.8 331,-361.8 327,-361.8 "/>
<polyline fill="none" stroke="#6b4c9a" points="327,-341.8 331,-341.8 331,-337.8 327,-337.8 "/>
<text text-anchor="middle" x="377.5" y="-354.16" font-family="DejaVu Sans" font-size="8.30">Printer manager</text>
<text text-anchor="middle" x="377.5" y="-345.16" font-family="DejaVu Sans" font-size="8.30">profile · fleet · status</text>
</g>
<!-- api&#45;&gt;manager -->
<g id="edge1" class="edge">
<title>api&#45;&gt;manager</title>
<path fill="none" stroke="#52667a" d="M362.62,-415.44C365.33,-404.04 368.91,-388.98 371.87,-376.49"/>
<polygon fill="#52667a" stroke="#52667a" points="374.16,-376.7 373.45,-369.85 369.74,-375.65 374.16,-376.7"/>
</g>
<!-- agent -->
<g id="node2" class="node">
<title>agent</title>
<path fill="#eef4ff" stroke="#315c9b" stroke-width="2" d="M526,-697.8C526,-697.8 451,-697.8 451,-697.8 445,-697.8 439,-691.8 439,-685.8 439,-685.8 439,-673.8 439,-673.8 439,-667.8 445,-661.8 451,-661.8 451,-661.8 526,-661.8 526,-661.8 532,-661.8 538,-667.8 538,-673.8 538,-673.8 538,-685.8 538,-685.8 538,-691.8 532,-697.8 526,-697.8"/>
<text text-anchor="middle" x="488.5" y="-682.16" font-family="DejaVu Sans" font-size="8.30">Specimen handler +</text>
<text text-anchor="middle" x="488.5" y="-673.16" font-family="DejaVu Sans" font-size="8.30">registered tools</text>
</g>
<!-- model -->
<g id="node3" class="node">
<title>model</title>
<polygon fill="#f2ecfa" stroke="#6b4c9a" points="540.5,-615.8 436.5,-615.8 436.5,-611.8 432.5,-611.8 432.5,-607.8 436.5,-607.8 436.5,-587.8 432.5,-587.8 432.5,-583.8 436.5,-583.8 436.5,-579.8 540.5,-579.8 540.5,-615.8"/>
<polyline fill="none" stroke="#6b4c9a" points="436.5,-611.8 440.5,-611.8 440.5,-607.8 436.5,-607.8 "/>
<polyline fill="none" stroke="#6b4c9a" points="436.5,-587.8 440.5,-587.8 440.5,-583.8 436.5,-583.8 "/>
<text text-anchor="middle" x="488.5" y="-600.16" font-family="DejaVu Sans" font-size="8.30">Registered API / vLLM</text>
<text text-anchor="middle" x="488.5" y="-591.16" font-family="DejaVu Sans" font-size="8.30">specimen_reasoning</text>
</g>
<!-- agent&#45;&gt;model -->
<g id="edge2" class="edge">
<title>agent&#45;&gt;model</title>
<path fill="none" stroke="#52667a" d="M488.5,-661.44C488.5,-650.04 488.5,-634.98 488.5,-622.49"/>
<polygon fill="#52667a" stroke="#52667a" points="490.78,-622.35 488.5,-615.85 486.23,-622.35 490.78,-622.35"/>
<text text-anchor="middle" x="523.5" y="-636.96" font-family="DejaVu Sans" font-size="7.30">projected evidence</text>
</g>
<!-- dispatch -->
<g id="node4" class="node">
<title>dispatch</title>
<path fill="#eef4ff" stroke="#315c9b" d="M535.5,-533.8C535.5,-533.8 441.5,-533.8 441.5,-533.8 435.5,-533.8 429.5,-527.8 429.5,-521.8 429.5,-521.8 429.5,-509.8 429.5,-509.8 429.5,-503.8 435.5,-497.8 441.5,-497.8 441.5,-497.8 535.5,-497.8 535.5,-497.8 541.5,-497.8 547.5,-503.8 547.5,-509.8 547.5,-509.8 547.5,-521.8 547.5,-521.8 547.5,-527.8 541.5,-533.8 535.5,-533.8"/>
<text text-anchor="middle" x="488.5" y="-518.16" font-family="DejaVu Sans" font-size="8.30">Strict local dispatcher</text>
<text text-anchor="middle" x="488.5" y="-509.16" font-family="DejaVu Sans" font-size="8.30">inspect / execute / return</text>
</g>
<!-- model&#45;&gt;dispatch -->
<g id="edge3" class="edge">
<title>model&#45;&gt;dispatch</title>
<path fill="none" stroke="#52667a" d="M488.5,-579.44C488.5,-568.04 488.5,-552.98 488.5,-540.49"/>
<polygon fill="#52667a" stroke="#52667a" points="490.78,-540.35 488.5,-533.85 486.23,-540.35 490.78,-540.35"/>
<text text-anchor="middle" x="521" y="-554.96" font-family="DejaVu Sans" font-size="7.30">JSON tool request</text>
</g>
<!-- runtime -->
<g id="node5" class="node">
<title>runtime</title>
<path fill="#eef4ff" stroke="#315c9b" d="M527,-451.8C527,-451.8 450,-451.8 450,-451.8 444,-451.8 438,-445.8 438,-439.8 438,-439.8 438,-427.8 438,-427.8 438,-421.8 444,-415.8 450,-415.8 450,-415.8 527,-415.8 527,-415.8 533,-415.8 539,-421.8 539,-427.8 539,-427.8 539,-439.8 539,-439.8 539,-445.8 533,-451.8 527,-451.8"/>
<text text-anchor="middle" x="488.5" y="-436.16" font-family="DejaVu Sans" font-size="8.30">experiment.evaluate</text>
<text text-anchor="middle" x="488.5" y="-427.16" font-family="DejaVu Sans" font-size="8.30">existing tool registry</text>
</g>
<!-- dispatch&#45;&gt;runtime -->
<g id="edge4" class="edge">
<title>dispatch&#45;&gt;runtime</title>
<path fill="none" stroke="#52667a" d="M488.5,-497.44C488.5,-486.04 488.5,-470.98 488.5,-458.49"/>
<polygon fill="#52667a" stroke="#52667a" points="490.78,-458.35 488.5,-451.85 486.23,-458.35 490.78,-458.35"/>
<text text-anchor="middle" x="519" y="-472.96" font-family="DejaVu Sans" font-size="7.30">execute callback</text>
</g>
<!-- runtime&#45;&gt;manager -->
<g id="edge5" class="edge">
<title>runtime&#45;&gt;manager</title>
<path fill="none" stroke="#52667a" d="M464.69,-415.64C447.72,-403.4 424.8,-386.89 406.72,-373.86"/>
<polygon fill="#52667a" stroke="#52667a" points="407.88,-371.89 401.27,-369.93 405.22,-375.58 407.88,-371.89"/>
<text text-anchor="middle" x="463" y="-390.96" font-family="DejaVu Sans" font-size="7.30">printer.prepare</text>
</g>
<!-- gates -->
<g id="node7" class="node">
<title>gates</title>
<path fill="#fff1d6" stroke="#b26a00" d="M270.83,-292.01C270.83,-292.01 185.17,-271.58 185.17,-271.58 179.34,-270.19 179.34,-267.41 185.17,-266.01 185.17,-266.01 270.83,-245.58 270.83,-245.58 276.66,-244.19 288.34,-244.19 294.17,-245.58 294.17,-245.58 379.83,-266.01 379.83,-266.01 385.66,-267.41 385.66,-270.19 379.83,-271.58 379.83,-271.58 294.17,-292.01 294.17,-292.01 288.34,-293.41 276.66,-293.41 270.83,-292.01"/>
<text text-anchor="middle" x="282.5" y="-271.16" font-family="DejaVu Sans" font-size="8.30">Artifact hash · prestart</text>
<text text-anchor="middle" x="282.5" y="-262.16" font-family="DejaVu Sans" font-size="8.30">approval · bed&#45;clear</text>
</g>
<!-- manager&#45;&gt;gates -->
<g id="edge6" class="edge">
<title>manager&#45;&gt;gates</title>
<path fill="none" stroke="#52667a" d="M357.35,-333.62C343.75,-322.02 325.61,-306.55 310.59,-293.75"/>
<polygon fill="#52667a" stroke="#52667a" points="312.05,-292 305.63,-289.52 309.1,-295.47 312.05,-292"/>
</g>
<!-- bambu -->
<g id="node8" class="node">
<title>bambu</title>
<polygon fill="#f2ecfa" stroke="#6b4c9a" points="165,-196.8 0,-196.8 0,-192.8 -4,-192.8 -4,-188.8 0,-188.8 0,-168.8 -4,-168.8 -4,-164.8 0,-164.8 0,-160.8 165,-160.8 165,-196.8"/>
<polyline fill="none" stroke="#6b4c9a" points="0,-192.8 4,-192.8 4,-188.8 0,-188.8 "/>
<polyline fill="none" stroke="#6b4c9a" points="0,-168.8 4,-168.8 4,-164.8 0,-164.8 "/>
<text text-anchor="middle" x="82.5" y="-181.16" font-family="DejaVu Sans" font-size="8.30">Bambu provider</text>
<text text-anchor="middle" x="82.5" y="-172.16" font-family="DejaVu Sans" font-size="8.30">slicer · patch · artifact route · MQTT</text>
</g>
<!-- gates&#45;&gt;bambu -->
<g id="edge7" class="edge">
<title>gates&#45;&gt;bambu</title>
<path fill="none" stroke="#52667a" d="M233.07,-254.56C207.77,-246.98 176.84,-236.46 150.5,-223.8 136.99,-217.31 122.95,-208.6 111.16,-200.64"/>
<polygon fill="#52667a" stroke="#52667a" points="112.21,-198.6 105.56,-196.81 109.64,-202.36 112.21,-198.6"/>
<text text-anchor="middle" x="190.5" y="-217.96" font-family="DejaVu Sans" font-size="7.30">active selected config</text>
</g>
<!-- prusa -->
<g id="node9" class="node">
<title>prusa</title>
<polygon fill="#f2ecfa" stroke="#6b4c9a" points="274,-196.8 187,-196.8 187,-192.8 183,-192.8 183,-188.8 187,-188.8 187,-168.8 183,-168.8 183,-164.8 187,-164.8 187,-160.8 274,-160.8 274,-196.8"/>
<polyline fill="none" stroke="#6b4c9a" points="187,-192.8 191,-192.8 191,-188.8 187,-188.8 "/>
<polyline fill="none" stroke="#6b4c9a" points="187,-168.8 191,-168.8 191,-164.8 187,-164.8 "/>
<text text-anchor="middle" x="230.5" y="-181.16" font-family="DejaVu Sans" font-size="8.30">Prusa provider</text>
<text text-anchor="middle" x="230.5" y="-172.16" font-family="DejaVu Sans" font-size="8.30">operator&#45;selected</text>
</g>
<!-- gates&#45;&gt;prusa -->
<g id="edge8" class="edge">
<title>gates&#45;&gt;prusa</title>
<path fill="none" stroke="#52667a" stroke-dasharray="5,2" d="M258.06,-248.49C250.7,-241.47 243.31,-232.99 238.5,-223.8 235.26,-217.61 233.31,-210.33 232.14,-203.5"/>
<polygon fill="#52667a" stroke="#52667a" points="234.36,-202.99 231.21,-196.87 229.86,-203.62 234.36,-202.99"/>
<text text-anchor="middle" x="287" y="-217.96" font-family="DejaVu Sans" font-size="7.30">explicit operator selection</text>
</g>
<!-- blocked -->
<g id="node12" class="node">
<title>blocked</title>
<path fill="#ffe9e7" stroke="#a33a32" stroke-width="2" d="M416.5,-196.8C416.5,-196.8 308.5,-196.8 308.5,-196.8 302.5,-196.8 296.5,-190.8 296.5,-184.8 296.5,-184.8 296.5,-172.8 296.5,-172.8 296.5,-166.8 302.5,-160.8 308.5,-160.8 308.5,-160.8 416.5,-160.8 416.5,-160.8 422.5,-160.8 428.5,-166.8 428.5,-172.8 428.5,-172.8 428.5,-184.8 428.5,-184.8 428.5,-190.8 422.5,-196.8 416.5,-196.8"/>
<text text-anchor="middle" x="362.5" y="-176.66" font-family="DejaVu Sans" font-size="8.30">No UI/model/module bypass</text>
</g>
<!-- gates&#45;&gt;blocked -->
<g id="edge13" class="edge">
<title>gates&#45;&gt;blocked</title>
<path fill="none" stroke="#52667a" stroke-dasharray="5,2" d="M309.16,-249.12C318.45,-241.86 328.53,-233.06 336.5,-223.8 342.58,-216.74 348.04,-208.07 352.38,-200.29"/>
<polygon fill="#52667a" stroke="#52667a" points="351,-196.04 356.7,-199.15 356.08,-200.29 350.37,-197.18 351,-196.04"/>
<polyline fill="none" stroke="#52667a" points="354.16,-197.02 352.6,-199.88 "/>
<text text-anchor="middle" x="361.5" y="-217.96" font-family="DejaVu Sans" font-size="7.30">prohibited</text>
</g>
<!-- device -->
<g id="node10" class="node">
<title>device</title>
<path fill="#ffe9e7" stroke="#a33a32" stroke-width="2" d="M287.27,-99.17C287.27,-99.17 287.27,-104.63 287.27,-104.63 287.27,-107.37 284.69,-111 282.11,-111.9 282.11,-111.9 259.18,-119.9 259.18,-119.9 256.6,-120.8 251.28,-121.7 248.55,-121.7 248.55,-121.7 212.45,-121.7 212.45,-121.7 209.72,-121.7 204.4,-120.8 201.82,-119.9 201.82,-119.9 178.89,-111.9 178.89,-111.9 176.31,-111 173.73,-107.37 173.73,-104.63 173.73,-104.63 173.73,-99.17 173.73,-99.17 173.73,-96.43 176.31,-92.8 178.89,-91.9 178.89,-91.9 201.82,-83.9 201.82,-83.9 204.4,-83 209.72,-82.1 212.45,-82.1 212.45,-82.1 248.55,-82.1 248.55,-82.1 251.28,-82.1 256.6,-83 259.18,-83.9 259.18,-83.9 282.11,-91.9 282.11,-91.9 284.69,-92.8 287.27,-96.43 287.27,-99.17"/>
<text text-anchor="middle" x="230.5" y="-104.26" font-family="DejaVu Sans" font-size="8.30">3D printer</text>
<text text-anchor="middle" x="230.5" y="-95.26" font-family="DejaVu Sans" font-size="8.30">physical effect</text>
</g>
<!-- bambu&#45;&gt;device -->
<g id="edge9" class="edge">
<title>bambu&#45;&gt;device</title>
<path fill="none" stroke="#52667a" d="M116.45,-160.62C139.27,-149.07 169.35,-133.84 192.89,-121.93"/>
<polygon fill="#52667a" stroke="#52667a" points="193.96,-123.94 198.73,-118.98 191.9,-119.88 193.96,-123.94"/>
</g>
<!-- prusa&#45;&gt;device -->
<g id="edge10" class="edge">
<title>prusa&#45;&gt;device</title>
<path fill="none" stroke="#52667a" d="M230.5,-160.43C230.5,-150.93 230.5,-138.98 230.5,-128.44"/>
<polygon fill="#52667a" stroke="#52667a" points="232.78,-128.25 230.5,-121.75 228.23,-128.25 232.78,-128.25"/>
</g>
<!-- proof -->
<g id="node11" class="node">
<title>proof</title>
<polygon fill="#e9f7ef" stroke="#2e7d59" points="410.5,-36 286.5,-36 286.5,0 416.5,0 416.5,-30 410.5,-36"/>
<polyline fill="none" stroke="#2e7d59" points="410.5,-36 410.5,-30 "/>
<polyline fill="none" stroke="#2e7d59" points="416.5,-30 410.5,-30 "/>
<text text-anchor="middle" x="351.5" y="-20.36" font-family="DejaVu Sans" font-size="8.30">Ack + fresh status · camera</text>
<text text-anchor="middle" x="351.5" y="-11.36" font-family="DejaVu Sans" font-size="8.30">hashes · bed&#45;clear · audit</text>
</g>
<!-- device&#45;&gt;proof -->
<g id="edge11" class="edge">
<title>device&#45;&gt;proof</title>
<path fill="none" stroke="#2e7d59" d="M257.05,-82.93C275.88,-70.19 301.18,-53.06 320.86,-39.74"/>
<polygon fill="#2e7d59" stroke="#2e7d59" points="322.14,-41.62 326.25,-36.09 319.59,-37.85 322.14,-41.62"/>
<text text-anchor="middle" x="315.5" y="-57.16" font-family="DejaVu Sans" font-size="7.30">evidence</text>
</g>
<!-- proof&#45;&gt;manager -->
<g id="edge12" class="edge">
<title>proof&#45;&gt;manager</title>
<path fill="none" stroke="#2e7d59" d="M413.06,-36.04C442.95,-48.44 472.5,-68.81 472.5,-100.9 472.5,-269.8 472.5,-269.8 472.5,-269.8 472.5,-297.07 449.55,-317.11 426.2,-330.43"/>
<polygon fill="#2e7d59" stroke="#2e7d59" points="424.89,-328.55 420.28,-333.67 427.07,-332.54 424.89,-328.55"/>
<text text-anchor="middle" x="501" y="-176.96" font-family="DejaVu Sans" font-size="7.30">status / release</text>
</g>
</g>
</svg>
